<?xml version="1.0" encoding="utf-8"?>
<!-- Generator: Adobe Illustrator 24.0.2, SVG Export Plug-In . SVG Version: 6.00 Build 0)  -->
<svg version="1.1" id="freepik_stories-remote-team" xmlns:svgjs="http://svgjs.com/svgjs"
	 xmlns="http://www.w3.org/2000/svg" xmlns:xlink="http://www.w3.org/1999/xlink" x="0px" y="0px" viewBox="0 0 750 500"
	 style="enable-background:new 0 0 750 500;" xml:space="preserve">
<style type="text/css">
	.st0{fill:none;stroke:#000000;stroke-miterlimit:10;}
	.st1{opacity:0.3;}
	.st2{fill:#263238;}
</style>
<g id="freepik--Plant--inject-47">
	<path id="elrdumol94vba" class="st0" d="M189.3,392c0.1-7.2,2.9-14.1,7.8-19.4C199.4,382.3,189.3,392,189.3,392z"/>
	<path id="el6ggk35ftqqj" class="st0" d="M200.6,386.5c6.7-2.8,14.1-3,20.9-0.6C213.6,392,200.6,386.5,200.6,386.5z"/>
	<path id="el059bo8tawh5u" class="st0" d="M201.9,380.2c-1.1-5.6-0.1-11.4,2.9-16.3C208.2,371.1,201.9,380.2,201.9,380.2z"/>
	<path id="elwo8uaznx64" class="st0" d="M158,357.4c16.6,4.4,25.5,18.9,25.5,18.9C169.3,376.3,158,357.4,158,357.4z"/>
	<path id="el7qgl09rafvl" class="st0" d="M184.5,364.2c-0.9-17.9,16.6-38.2,16.6-38.2C198.5,348.3,184.5,364.2,184.5,364.2"/>
	<path id="elx40914fcjq" class="st0" d="M184.4,313.2c0.3,9-1.8,17.8-6.3,25.6C175.6,327.3,184.4,313.2,184.4,313.2z"/>
	<path id="elc9ioaewldbm" class="st0" d="M177.7,349.6c-13.1-1.4-20.2-14.4-20.2-14.4C173.3,339.6,177.7,349.6,177.7,349.6z"/>
	<path id="el23d63qo6gr8" class="st0" d="M149.4,404.3c6.1-3.8,13.5-5.2,20.6-4C163.1,407.6,149.4,404.3,149.4,404.3z"/>
	<path id="el9dvo3ya3wtq" class="st0" d="M183.4,410.2c-1.7,4.2-4.8,7.8-8.8,9.9C175.1,414,183.4,410.2,183.4,410.2z"/>
	<path id="elthxjkuc4qsj" class="st0" d="M181.7,408.3c-4.7,2.7-10.3,3.7-15.7,2.8C171.1,405.8,181.7,408.3,181.7,408.3z"/>
	<path id="elxkfe3a3tx1" class="st0" d="M188.4,432.4c0-0.1,0-0.2,0-0.3c0-0.2,0-0.5,0-0.8c0-0.7,0-1.7,0-3s0-2.9,0-4.8s0-4-0.1-6.3
		c-0.1-4.6-0.4-10.2-0.9-16.3s-1.3-12.9-2.3-19.9c-2.1-14.1-4.9-26.6-7.2-35.6c-1.1-4.5-2.1-8.2-2.8-10.7c-0.3-1.2-0.6-2.2-0.8-2.9
		l-0.2-0.8c0-0.1,0-0.2-0.1-0.3c0,0,0,0.1,0.1,0.2l0.3,0.7l0.9,2.9c0.8,2.5,1.8,6.1,3,10.6c3.1,11.8,5.5,23.7,7.3,35.7
		c1,7,1.8,13.8,2.3,19.9s0.7,11.7,0.8,16.4c0.1,2.3,0.1,4.4,0.1,6.3s0,3.5-0.1,4.8s-0.1,2.3-0.1,3c0,0.3,0,0.6,0,0.8
		C188.4,432.2,188.4,432.3,188.4,432.4z"/>
	<path id="el57241tf6fp3" class="st0" d="M164.3,394.5c0.1-0.1,5.4,3.3,11.8,7.8s11.6,8.1,11.5,8.2s-5.4-3.3-11.8-7.7
		S164.3,394.6,164.3,394.5z"/>
	<path id="el5bnebs99gc" class="st0" d="M187.6,396.4c0.2-0.3,0.5-0.6,0.8-0.9l2.4-2.3c2.1-2,4.9-4.5,7.9-7.4l7.9-7.4l2.4-2.2
		c0.3-0.3,0.6-0.6,0.9-0.8c-0.2,0.3-0.5,0.7-0.8,0.9c-0.5,0.6-1.3,1.4-2.3,2.4c-1.9,2-4.7,4.6-7.8,7.5s-5.9,5.4-8,7.3
		c-1,0.9-1.9,1.6-2.5,2.1C188.3,395.9,188,396.2,187.6,396.4z"/>
	<path id="elfhfaov5h8oq" class="st0" d="M147.5,386c0,0,13.5-0.3,19.3,10.4C159.1,396.2,152,392.3,147.5,386z"/>
	<path id="el9dkiucqk29f" class="st0" d="M166,380.5c0,0,11,7.9,9.3,19.8C169.2,395.6,165.8,388.2,166,380.5z"/>
	<path id="elg97t3ouz6u" class="st0" d="M224,361.2c0,0-4.4,15.1-18.2,17.9C208.7,370.6,215.5,363.9,224,361.2z"/>
	<path id="el8acqx6t883l" class="st0" d="M160,304.9c0,0,17.3,11.3,15.3,29.6C165.8,327.6,160.2,316.6,160,304.9z"/>
	<path id="eljuaugug10as" class="st0" d="M217.4,405c-0.3,0.3-0.7,0.6-1.1,0.9c-0.7,0.5-1.8,1.3-3.1,2.4c-6.7,5.3-12.5,11.7-17.1,19
		c-0.9,1.4-1.6,2.5-2,3.3c-0.2,0.4-0.5,0.8-0.8,1.2c0.1-0.5,0.3-0.9,0.6-1.3c0.4-0.8,1-2,1.9-3.4c2.2-3.7,4.8-7.2,7.6-10.4
		c2.9-3.2,6.1-6.1,9.5-8.6c1.3-1,2.4-1.8,3.2-2.2C216.6,405.5,217,405.2,217.4,405z"/>
	<path id="elr5i8caylq68" class="st0" d="M202.4,416.3c-1.2-7.1,0.2-14.4,4-20.6C208.2,408.5,202.4,416.3,202.4,416.3z"/>
	<path id="el2hxfxasayrb" class="st0" d="M214,409.9c4.6-2.6,9.9-3.4,15.1-2.3C220.8,412,214,409.9,214,409.9z"/>
	<polygon id="el85tfnxxrwrq" class="st0" points="163.2,433.8 169.7,476.3 207.3,476.3 216,434.4 	"/>
	<path id="el04m1rxk71aqk" class="st0" d="M158.9,425.3v8c0,1.7,1.4,3.1,3.1,3.1c0,0,0,0,0,0h54.5c1.7,0,3.1-1.4,3.1-3.1l0,0v-8
		H158.9z"/>
	<path id="ela6ys3e9is4w" class="st0" d="M214.9,436.6c0,0.1-11.9,0.3-26.6,0.3s-26.6-0.1-26.6-0.3s11.9-0.3,26.6-0.3
		S214.9,436.4,214.9,436.6z"/>
</g>
<g id="freepik--character-4--inject-47">
	<polygon id="elejul5vq29gt" class="st0" points="486,214.2 486,265.9 468.4,284.9 486,284.9 486,377 486,377 655.4,377 
		655.4,214.2 	"/>
	<rect id="elh154bbsda96" x="486.1" y="214.4" class="st0" width="169.4" height="12.2"/>
	<polygon id="elle4cm1w0s6" class="st0" points="486.1,351.3 486.1,377.2 495,377.2 517.2,377.2 655.5,377.2 655.5,351.3 	"/>
	<path id="eldo184bw83d4" class="st0" d="M510,220.9c0,1.3-1,2.3-2.3,2.3s-2.3-1-2.3-2.3c0-1.3,1-2.3,2.3-2.3l0,0
		C509,218.6,510,219.7,510,220.9z"/>
	<path id="elisu38k8szok" class="st0" d="M496.2,220.9c0,1.3-1,2.3-2.3,2.3s-2.3-1-2.3-2.3c0-1.3,1-2.3,2.3-2.3l0,0
		C495.2,218.6,496.2,219.7,496.2,220.9z"/>
	<path id="el5zfhfykewcj" class="st0" d="M503.1,220.9c0,1.3-1,2.3-2.3,2.3s-2.3-1-2.3-2.3c0-1.3,1-2.3,2.3-2.3l0,0
		C502.1,218.6,503.1,219.7,503.1,220.9z"/>
	<path id="elwwyky07y1k" class="st0" d="M639,255L639,255c-5.9,0-10.7-4.8-10.7-10.7c0,0,0,0,0,0l0,0c0-5.9,4.8-10.7,10.7-10.7l0,0
		c5.9,0,10.7,4.8,10.7,10.7l0,0C649.7,250.2,644.9,255,639,255z"/>
	<path id="elx91jdwuqt38" class="st0" d="M638.6,244.4c0.9-0.3,1.4-1.2,1.1-2.1c-0.3-0.9-1.2-1.4-2.1-1.1s-1.4,1.2-1.1,2.1
		c0.2,0.5,0.6,1,1.1,1.1c-1.5,0.2-2.5,1.5-2.5,3h6C641.2,245.9,640.1,244.6,638.6,244.4z"/>
	<path id="eldjneahv8sug" class="st0" d="M642,244.9c-0.1,0-0.2-0.1-0.3-0.2v-2.8c0-0.1,0.1-0.3,0.2-0.3c0.1,0,0.3,0.1,0.3,0.2
		c0,0,0,0.1,0,0.1v2.8C642.2,244.8,642.1,244.9,642,244.9z"/>
	<path id="elyzbf2k0mnqf" class="st0" d="M643.3,243.5h-2.8c-0.1,0-0.2-0.2-0.2-0.3c0-0.1,0.1-0.2,0.2-0.2h2.8
		c0.1,0,0.3,0.1,0.3,0.2S643.6,243.5,643.3,243.5C643.4,243.5,643.4,243.5,643.3,243.5z"/>
	<circle id="el8z43192icvo" class="st0" cx="601" cy="363.5" r="8"/>
	<path id="elw9tg37m9n2g" class="st0" d="M599.3,361.7h1.4c0.7,0,1.3,0.6,1.3,1.3v1.5c0,0.7-0.6,1.3-1.3,1.3h-1.4
		c-0.7,0-1.3-0.6-1.3-1.3V363C598.1,362.3,598.6,361.7,599.3,361.7z"/>
	<path id="elt68crrdbyc" class="st0" d="M602.4,364.4v-1.4l1-1.1c0.1-0.1,0.2-0.1,0.3,0c0,0,0.1,0.1,0.1,0.2v3.1
		c0,0.1-0.1,0.2-0.2,0.2c-0.1,0-0.1,0-0.1-0.1L602.4,364.4z"/>
	<path id="el6g2gts7e3m" class="st0" d="M571.1,369.3c-3.1-3.1-3.1-8.1,0-11.2c3.1-3.1,8.1-3.1,11.2,0c3.1,3.1,3.1,8.1,0,11.2
		c0,0,0,0,0,0C579.2,372.4,574.2,372.4,571.1,369.3C571.1,369.3,571.1,369.3,571.1,369.3z"/>
	<path id="eljhcm9jvpp7" class="st0" d="M573.3,365l1.4-0.3c0.2,0,0.3-0.2,0.3-0.4V364c0,0-0.1-0.5,0.4-0.5s2.5,0,2.5,0
		s0.6,0,0.5,0.4v0.4c0,0.1,0.1,0.3,0.2,0.3l1.5,0.5c0.2,0,0.3,0,0.4-0.2l0.2-0.5c0-0.1,0-0.2,0-0.3c0-0.3-0.1-0.5-0.3-0.7
		c-0.3-0.4-1.7-1.3-4.5-1.2s-3.2,1.2-3.3,1.5c-0.1,0.2-0.1,0.5,0,0.7c0,0.1,0.1,0.2,0.1,0.3C572.9,364.9,573.1,365,573.3,365z"/>
	<circle id="el43gfvy03a73" class="st0" cx="552.5" cy="363.6" r="8"/>
	<path id="elpaue8gzk2t" class="st0" d="M550,364.4c-0.4,0-0.8-0.4-0.8-0.8s0.4-0.8,0.8-0.8c0.4,0,0.8,0.4,0.8,0.8
		C550.8,364.1,550.4,364.4,550,364.4L550,364.4z"/>
	<path id="elytmlxlvv8j" class="st0" d="M552.4,364.4c-0.4,0-0.8-0.4-0.8-0.8c0-0.4,0.4-0.7,0.9-0.7c0.4,0,0.7,0.3,0.7,0.7
		C553.2,364.1,552.9,364.4,552.4,364.4z"/>
	<circle id="elgjrnw28lpsp" class="st0" cx="555" cy="363.6" r="0.8"/>
	<path id="el2eqcoyy9wp" class="st0" d="M505.9,245c0,2.8-2.3,5.2-5.2,5.2c-2.8,0-5.2-2.3-5.2-5.2c0-2.8,2.3-5.2,5.2-5.2
		S505.9,242.2,505.9,245L505.9,245z"/>
	<path id="elnzp9gi1dgd" class="st0" d="M537.1,245.9c0,0.1-6.4,0.3-14.4,0.3s-14.4-0.1-14.4-0.3s6.4-0.3,14.4-0.3
		S537.1,245.8,537.1,245.9z"/>
	<path id="elrka95fbtmxc" class="st0" d="M486.1,214.4h3.1h9l34.3-0.1l122.9-0.1h0.2v0.2c0,47.4,0,103.1,0,162.8v0.3h-12.5H486.1
		H486l-0.1-0.1l0,0l-0.1-0.1v-0.1c0-34.8,0-65.8,0-92.1l0.2,0.2h-17.7H468l0.3-0.3l17.7-19.1v0.1c0-16.6,0.1-29.5,0.1-38.3
		c0-4.4,0-7.7,0-10c0-1.1,0-2,0-2.5S486.1,214.4,486.1,214.4c0,0,0,0.3,0,0.9s0,1.4,0,2.6c0,2.3,0,5.6,0,10c0,8.8,0,21.7,0.1,38.2v0
		l0,0l-17.7,19.1l-0.1-0.3h17.9v0.2c0,26.2,0,57.3,0,92.1l-0.1-0.2l0,0l-0.2-0.1h157.1h12.3l-0.3,0.3c0-59.7,0-115.4,0-162.8
		l0.2,0.2l-122.8-0.1l-34.4-0.1h-9.1h-2.3L486.1,214.4z"/>
	<path id="el7shxa5hxb9a" class="st0" d="M604.6,298.1c0,0.1-4.7,0.5-10.4,0.7s-10.4,0.3-10.4,0.2s4.7-0.5,10.4-0.7
		C597.6,298,601.1,298,604.6,298.1z"/>
	<path id="el8gblsr5rw27" class="st0" d="M553.7,261c0.9-5,2.1-10.1,5.2-14.2s8.5-6.7,13.3-5.1l5.9,3.4c-1.2,13.8-4,27.5-8.4,40.7
		c-0.3,1.3-1,2.6-1.8,3.6c-1.9,2-5.1,1.8-7.8,1.5c-3.3-0.4-7.1-1.1-8.5-4.1c-0.6-1.5-0.7-3.1-0.5-4.7C551.6,275,552.5,268,553.7,261
		z"/>
	<path id="el6s7o0p3dlql" class="st0" d="M587.2,252.1l-18.3-6.1c-5.9-1.1-10.4,6-11.2,12c-0.9,6.6-1.8,14.8-1.3,19.8
		c0.9,10.1,8.4,11.9,8.4,11.9c-0.6,2.5-0.8,5.1-0.6,7.6c0.5,6.9,4.9,8.7,8.5,8.9l0,0c5.7,0.6,11.7-1.2,12.4-6.9l5-43.4
		C590.2,254.1,589,252.4,587.2,252.1z"/>
	<path id="el9zz8g73lqqd" class="st0" d="M560.2,265.8c-0.1,0.7,0.4,1.3,1.1,1.4c0.7,0.1,1.3-0.4,1.4-1c0,0,0,0,0,0
		c0.1-0.7-0.4-1.3-1.1-1.4C560.9,264.6,560.3,265.1,560.2,265.8C560.2,265.8,560.2,265.8,560.2,265.8z"/>
	<path id="elojeko1e10qd" class="st0" d="M559.6,263.2c0.2,0.2,1.2-0.5,2.5-0.4s2.3,0.9,2.5,0.7s-0.1-0.4-0.5-0.7
		c-0.6-0.5-1.3-0.7-2-0.8c-0.7,0-1.4,0.1-2,0.5C559.7,262.8,559.5,263.1,559.6,263.2z"/>
	<path id="elkmnwgwr9zd" class="st0" d="M572.7,267.5c-0.1,0.7,0.4,1.3,1.1,1.4c0.7,0.1,1.3-0.4,1.4-1c0,0,0,0,0,0
		c0.1-0.7-0.4-1.3-1.1-1.4C573.4,266.4,572.8,266.8,572.7,267.5C572.7,267.5,572.7,267.5,572.7,267.5z"/>
	<path id="elutwbr0q39hl" class="st0" d="M573.4,264.6c0.2,0.2,1.2-0.5,2.5-0.4s2.3,0.9,2.5,0.7s-0.1-0.4-0.5-0.7
		c-0.6-0.5-1.3-0.7-2-0.8c-0.7,0-1.4,0.1-2,0.5C573.5,264.2,573.3,264.5,573.4,264.6z"/>
	<path id="el4cae4b9oan1" class="st0" d="M567.4,273.5c-0.7-0.3-1.5-0.5-2.2-0.6c-0.3-0.1-0.7-0.2-0.7-0.4c0-0.4,0.1-0.7,0.3-1
		l1.2-2.6c1.7-3.7,3-6.8,2.8-6.9c-1.3,2.1-2.4,4.3-3.4,6.6c-0.4,0.9-0.8,1.8-1.2,2.6c-0.3,0.4-0.4,0.9-0.3,1.4
		c0.1,0.3,0.3,0.5,0.5,0.6c0.2,0.1,0.4,0.1,0.6,0.1C565.9,273.5,566.7,273.5,567.4,273.5z"/>
	<path id="el65vib2f58h6" class="st0" d="M564.7,289.7c4.9,0.5,9.8-0.4,14.2-2.5c0,0-4.5,6.7-14.4,5.1L564.7,289.7z"/>
	<path id="elnucw7ilyud9" class="st0" d="M572.7,260.3c0.1,0.4,1.5,0.3,3.1,0.6s2.9,0.9,3.1,0.5c0.1-0.2-0.1-0.5-0.6-0.9
		c-0.7-0.5-1.4-0.9-2.3-1c-0.8-0.2-1.7-0.1-2.5,0.1C573,259.9,572.7,260.2,572.7,260.3z"/>
	<path id="elsft46q9i998" class="st0" d="M559.5,259.1c0.3,0.3,1.5,0.1,2.9,0.2s2.6,0.4,2.9,0.1c0.1-0.1,0-0.5-0.5-0.8
		c-0.7-0.4-1.5-0.7-2.3-0.7c-0.8-0.1-1.6,0.1-2.4,0.5C559.6,258.6,559.4,258.9,559.5,259.1z"/>
	<path id="elbm018pzhvia" class="st0" d="M567,248.5c0.8,1.3,1.7,2.4,2.8,3.4l5,5c1.2,1.2,2.4,2.3,3.7,3.4c1.2,0.9,2.5,1.7,3.7,2.4
		c1.3,0.8,2,2.9,3.3,3.7c0.3,0.2,1.3,0.1,1.6,0.3c-0.1,2.2-0.1,9.4-0.1,12.2c0,4.5-1.6,16.4-1.6,16.4h3.8c3-0.5,6.1-3.9,6.8-6.8
		c0.6-2.8,0.5-6.6,0.6-8.9c0.5-5.8-0.7-11.7-1-17.5c0-2.4-0.4-4.7-1.1-6.9c-1.3-3.1-3.5-5.7-6.2-7.7c-2.9-2.5-6.4-4.3-10.1-5.3
		c-3.7-0.9-7.7-0.3-11,1.7c-0.5,0.3-0.9,0.8-1.1,1.3C565.6,246.6,566.3,247.2,567,248.5z M587.3,266.7
		C587.5,267,587.3,267.7,587.3,266.7z"/>
	<path id="elwa3q6e1udze" class="st0" d="M586.7,269.4c0.2-1.6,1.6-2.8,3.2-2.6c0.4,0,0.9,0.2,1.2,0.4c1,0.6,1.7,1.9,1.4,4.1
		c-0.7,6-6.6,4.1-6.5,3.9S586.4,271.9,586.7,269.4z"/>
	<path id="eluc2d6fzinf" class="st0" d="M588.1,273.2c0,0,0.1,0.1,0.3,0.2c0.2,0.1,0.5,0.2,0.8,0.1c0.8-0.4,1.4-1.3,1.5-2.2
		c0.1-0.5,0-1-0.1-1.5c-0.1-0.4-0.3-0.7-0.7-0.9c-0.2-0.1-0.5,0-0.7,0.2c-0.1,0.2-0.1,0.3-0.1,0.3s-0.1-0.1,0-0.4
		c0-0.1,0.1-0.3,0.3-0.4c0.2-0.1,0.4-0.1,0.6-0.1c0.5,0.2,0.9,0.6,1,1.1c0.2,0.5,0.3,1.1,0.2,1.7c-0.1,1.1-0.8,2.1-1.8,2.4
		c-0.3,0.1-0.7,0-0.9-0.3C588.1,273.4,588,273.2,588.1,273.2z"/>
	<path id="elmcpa6vtgpzf" class="st0" d="M589.9,276c0,0.7-0.6,1.2-1.3,1.1c-0.7,0-1.2-0.6-1.1-1.3c0-0.7,0.6-1.2,1.3-1.1
		c0,0,0,0,0,0C589.5,274.8,590,275.3,589.9,276C589.9,276,589.9,276,589.9,276z"/>
	<path id="elhb5sxjk7op4" class="st0" d="M571,276.3c0.8,1.3,0.5,3-0.8,3.8c-0.3,0.2-0.6,0.3-0.9,0.4c-0.3,0.1-0.7,0.1-1,0
		c-0.5-0.3-0.9-0.9-1-1.5c-0.2-0.5-0.3-1-0.5-1.5c-0.1-0.2-0.1-0.3,0-0.5c0.1-0.1,0.3-0.2,0.5-0.2l3.6-0.6"/>
	<path id="ell0m01q5poh" class="st0" d="M568.4,280.3c0.5,0.1,1.1,0.1,1.6-0.1c0.6-0.2,1.1-0.5,1.5-1c0.2-0.3,0.3-0.7,0.3-1.1
		c0-0.4-0.1-0.8-0.2-1.2c-0.1-0.4-0.3-0.7-0.6-1l-0.1-0.1h-0.1c-2.4,0.7-4.3,1-4.3,1c1.5,0,3-0.2,4.4-0.6l-0.2-0.1
		c0.2,0.2,0.4,0.5,0.5,0.8c0.5,1,0.1,2.2-0.9,2.7c-0.1,0.1-0.3,0.1-0.4,0.2C569,280.2,568.4,280.2,568.4,280.3z"/>
	<path id="elxb1pa7jlhcj" class="st0" d="M581.3,252.1c3.8,2.7,7,6.1,9.4,10l-3.2,5.5c-5.5-0.5-6.2-1.1-10-5s-11.6-11.8-12-17.3
		C570.7,246.8,576.9,249,581.3,252.1z"/>
	<path id="elyukv5z2eqye" class="st0" d="M590,295c0.1-0.2,0.2-0.4,0.3-0.6c0.2-0.4,0.5-0.9,0.8-1.6c1-2,1.7-4.1,2.4-6.2
		c0.9-3.2,1.4-6.4,1.6-9.7c0.1-1.9,0-3.9-0.3-5.8c-0.3-2-1.2-3.9-2.7-5.4c-1.5-1.4-3.3-2.5-5.2-3.3c-1.8-0.8-3.5-1.8-5.1-2.9
		c-2.7-1.9-5.2-4.1-7.3-6.6c-1.4-1.7-2.8-3.5-3.9-5.4c-0.4-0.7-0.7-1.2-0.9-1.6c-0.1-0.2-0.2-0.4-0.3-0.6c0.1,0.2,0.3,0.3,0.4,0.5
		c0.2,0.4,0.5,0.9,1,1.5c1.2,1.8,2.5,3.6,4,5.3c2.2,2.5,4.6,4.6,7.3,6.5c1.6,1.1,3.3,2,5,2.9c1.9,0.8,3.7,2,5.3,3.4
		c1.5,1.6,2.4,3.5,2.8,5.7c0.3,1.9,0.4,3.9,0.3,5.9c-0.2,3.3-0.7,6.6-1.7,9.8c-0.7,2.1-1.5,4.2-2.5,6.2c-0.4,0.7-0.7,1.2-0.9,1.6
		C590.2,294.7,590.1,294.8,590,295z"/>
	<path id="elc3gv73633rw" class="st0" d="M594.3,263.6c-0.3-1.5-1-3-1.9-4.2c-1-1.3-2.3-2.4-3.8-3.3c-1.8-1-3.6-2-5.5-2.8
		c-3.5-1.6-6.7-3.6-9.5-6.2c-0.9-0.8-1.7-1.6-2.5-2.4c-0.3-0.3-0.6-0.6-0.8-1c0.3,0.3,0.6,0.6,0.9,0.9c0.6,0.6,1.4,1.4,2.5,2.3
		c2.9,2.4,6.1,4.5,9.5,6c1.9,0.8,3.8,1.8,5.6,2.9c1.5,0.9,2.8,2.1,3.8,3.5c0.7,0.9,1.2,2,1.5,3.1c0.1,0.3,0.1,0.6,0.2,0.9
		C594.3,263.5,594.3,263.6,594.3,263.6z"/>
	<path id="el38abq0ts4tv" class="st0" d="M552.9,288.9c0-0.2,0-0.3,0-0.5c0-0.4,0-0.9,0-1.5c0-1.3,0.1-3.1,0.2-5.4
		c0.3-4.5,0.6-10.8,1.6-17.6c0.4-3.2,1.1-6.4,2.1-9.6c0.9-2.6,2.3-4.9,4.2-6.8c1.3-1.3,2.8-2.3,4.5-2.9c0.5-0.2,0.9-0.3,1.4-0.4
		c0.2,0,0.3-0.1,0.5-0.1c0,0-0.7,0.1-1.9,0.6c-1.6,0.7-3.1,1.7-4.4,2.9c-1.8,1.9-3.2,4.2-4,6.7c-1,3.1-1.7,6.3-2,9.5
		c-0.9,6.8-1.4,13.1-1.7,17.6c-0.2,2.2-0.3,4-0.4,5.4c0,0.6-0.1,1.1-0.1,1.5C553,288.6,553,288.7,552.9,288.9z"/>
	<path id="elgrkm3p7zh2f" class="st0" d="M537.2,319.6c0,0,1.1-8.7,5.3-13s21.6-9.7,21.6-9.7s0.7,6.2,4.9,7.7
		c4.4,1.6,9.5,1,12.7-2.8c2-2.4,3.4-5.3,4-8.3c0,0,20.8,1.9,24.3,7.6s7.8,27.9,7.8,27.9l-19.5,4.1l1.3,18l-47.9,0.3l-1.5-15.9
		l-14.1,2L537.2,319.6z"/>
	<path id="elkjwzy47ssf" class="st0" d="M594.4,334.3c-0.1-0.3-0.1-0.6-0.1-0.9c0-0.5,0-1.4,0-2.3c0-2,0-4.7,0.1-7.7
		s0.1-5.8,0.2-7.7c0-1,0.1-1.8,0.1-2.3c0-0.3,0-0.6,0.1-0.9c0.1,0.3,0.1,0.6,0.1,0.9c0,0.6,0,1.4,0,2.4c0,2,0,4.7-0.1,7.7
		s-0.2,5.8-0.2,7.7c0,1-0.1,1.8-0.1,2.3C594.5,333.7,594.5,334,594.4,334.3z"/>
	<path id="elhyk07jqmzcc" class="st0" d="M545.3,318.6c0.1,0,1.3,3.8,2.7,8.6s2.4,8.7,2.3,8.8c-1.1-2.8-2-5.7-2.7-8.6
		C546.2,322.6,545.2,318.6,545.3,318.6z"/>
	<path id="elv0lq7jg5li" class="st0" d="M607.8,299.7c0,0.1-0.9,0.3-2.3,0.8c-1.8,0.7-3.6,1.7-5.1,3c-1.5,1.3-2.8,2.9-3.7,4.6
		c-0.7,1.3-1,2.2-1.1,2.2c0-0.2,0.1-0.5,0.1-0.7c0.2-0.6,0.4-1.2,0.7-1.7c1.8-3.7,5-6.5,8.9-7.8c0.6-0.2,1.2-0.3,1.8-0.4
		C607.3,299.6,607.6,299.6,607.8,299.7z"/>
	<path id="el9mqhewoiydj" class="st0" d="M542.1,308.4c0.4,0.8,0.7,1.7,0.9,2.6c0.3,0.9,0.5,1.8,0.5,2.8
		C542.7,312.1,542.3,310.2,542.1,308.4L542.1,308.4z"/>
	<path id="elmwpxyny4vb" class="st0" d="M594.9,312.5c0,0.1-11.1,1.6-24.7,3.3s-24.8,3-24.8,2.8s11.1-1.6,24.7-3.3
		S594.8,312.3,594.9,312.5z"/>
	<path id="ell56ij08g5zd" class="st0" d="M613.5,311.8c-6,1.9-12.1,3.4-18.3,4.5c3-1,6-1.8,9.1-2.5
		C607.3,313,610.4,312.3,613.5,311.8z"/>
	<path id="elmgb7nyhl0ys" class="st0" d="M616.6,323.9c0,0.1-4.7,1.3-10.7,2.5s-10.7,2.2-10.8,2s4.7-1.3,10.7-2.5
		S616.6,323.7,616.6,323.9z"/>
	<path id="elqxlvn8va79q" class="st0" d="M563.9,301c0,0.1-4.5,1.4-10.2,2.9s-10.3,2.5-10.4,2.4s4.5-1.4,10.2-2.9
		S563.9,300.9,563.9,301z"/>
	<path id="elyjr0e3xy90e" class="st0" d="M594.1,330.7c0,0.1-9.9,0.9-22.2,1.6s-22.2,1.2-22.2,1.1s9.9-0.9,22.2-1.6
		S594.1,330.5,594.1,330.7z"/>
	<path id="elxk9vhwlmzn" class="st0" d="M538.7,324.5c1.3-0.4,2.6-0.6,3.9-0.7c1.3-0.3,2.6-0.4,3.9-0.3
		C544,324.3,541.4,324.6,538.7,324.5z"/>
	<path id="el7799e80ugi" class="st0" d="M593.4,345.4c-0.5,0.1-1,0.1-1.5,0.2l-4.1,0.3l-13.6,0.9l-13.6,1.1l-4.1,0.3
		c-0.5,0.1-1,0.1-1.5,0.1c0.5-0.1,1-0.2,1.5-0.3c1-0.1,2.4-0.3,4.1-0.5c3.5-0.4,8.3-0.8,13.6-1.2s10.1-0.6,13.6-0.8
		c1.7-0.1,3.2-0.1,4.1-0.1C592.4,345.3,592.9,345.3,593.4,345.4z"/>
	<path id="el28xk2cgziwk" class="st0" d="M550.1,335.4l-6.7,0.9l-6.3-16.3l-10.2,4.1c0,0,5.8,19.5,7.9,27.1h20.7L550.1,335.4z"/>
	<path id="el3cvrj41ba5p" class="st0" d="M550.8,348.1c-1.2-1.3-2.4-2.7-3.4-4.2c-0.8-1.2-1.6-2.5-2.2-3.8c-0.5-1.1-0.9-2.1-1.2-2.8
		c-0.1-0.3-0.3-0.7-0.4-1c0,0.4,0.1,0.7,0.3,1.1c0.3,1,0.7,1.9,1.1,2.8c0.6,1.4,1.3,2.7,2.2,3.9c1,1.5,2.2,2.9,3.4,4.3
		c0.9,0.9,1.8,1.9,2.5,2.9h0.5C552.7,350.1,551.9,349,550.8,348.1z"/>
	<path id="elbvaa19ixyp8" class="st0" d="M537.2,320c0,0,0-7.1-0.6-9.1l-5-11.2c0,0-1.3-0.8-1.9,1.4s1.3,4.5,1.3,4.5l0.2,2.9l-2-1.6
		l-3.9-7.3c0,0-2.7-5.3-3.4-4.5s-0.5,2.6,0.7,4.9l2.6,5.2c0,0,0.4,0.9-1-0.4s-4.4-7.9-5-8.7s-1.5-3.2-2.8-2.7s0.4,3.4,0.4,3.4
		l4.3,9.7c0,0-2.5-3.7-3-4.3s-1.5-2.7-2.3-3.8s-1.7-1.5-2.3-1.2c-0.6,0.2-0.9,0.9-0.8,1.5l4.6,8c0,0,2.3,3.6,2.3,3.9s-2-1.2-2-1.2
		l-1.9-2.5c0,0-2.1-3.7-3.2-3.5s-0.9,1-0.9,1l3.9,6.7l5.6,7.2l6,6l3.5-1.1L537.2,320z"/>
	<path id="eldxk8ru9acv" class="st0" d="M526.1,318.8c0.2-0.7,0.3-1.5,0.4-2.2c0.2-1.8,1-3.4,2.3-4.6c0.7-0.5,1.5-0.9,2.3-0.9h0.3
		v-0.3c-0.1-1.4,0-2.7-0.1-3.6c0-0.5,0-1-0.2-1.4c-0.1,0.5-0.1,0.9-0.1,1.4c-0.1,1.2-0.1,2.4-0.1,3.6l0.3-0.3c-1,0-1.9,0.4-2.7,1
		c-0.8,0.7-1.5,1.5-1.8,2.5c-0.3,0.8-0.5,1.6-0.5,2.5C526,317.3,526,318.1,526.1,318.8z"/>
	<path id="elp0obujqzqf" class="st0" d="M596.3,333.5l-3.7,17.8H610c0.7-2.5,4.3-21.6,4.3-21.6L596.3,333.5z"/>
</g>
<g id="freepik--character-3--inject-47">
	<rect id="elf3cxzlyeh0n" x="388.7" y="33.9" class="st0" width="167.5" height="161"/>
	<rect id="elbbcncfpxqsf" x="388.7" y="33.9" class="st0" width="167.5" height="12.1"/>
	<polygon id="elegmxi4730uc" class="st0" points="556.2,169.3 388.8,169.3 388.8,194.9 397.5,194.9 397.5,218.7 419.5,194.9 
		556.2,194.9 	"/>
	<path id="elcwk558bglsl" class="st0" d="M556.2,169.5c0,0,0,1,0,2.9s0,4.9,0,8.6s0,8.4,0,13.9v0.1c-0.2,0.2-0.1,0.1-0.1,0.1h-18.7
		l-117.9,0.1l0.2-0.1l-22,23.9l-0.4,0.4v-24.4l0.2,0.3h-8.9l-0.1-0.1l0,0l0-0.1v-0.1c0-36.5,0-76.5,0-118.2v-43h0.3h167.5h0.2v0.2
		c0,41.3-0.1,75.2-0.1,98.7c0,11.8,0,20.9-0.1,27.2c0,3.1,0,5.5,0,7.1S556.3,169.5,556.2,169.5c0,0,0-0.8,0-2.4s0-4,0-7.1
		c0-6.2,0-15.4,0-27.2c0-23.5-0.1-57.4-0.1-98.7l0.2,0.2l-167.5,0.1l0.3-0.3v42.8c0,41.7,0,81.7,0,118.2l0-0.1l0,0l-0.2-0.1h9v0.2
		c0,8.3,0,16.4,0,23.9l-0.4-0.2c7.6-8.3,15.1-16.3,22-23.9l0.1-0.1h0.1l117.9,0.1h18.8c0,0,0.1-0.1-0.1,0.1V195c0-5.5,0-10.2,0-13.9
		s0-6.7,0-8.6S556.2,169.5,556.2,169.5z"/>
	<path id="elib8ysizxx4c" class="st0" d="M412.4,40.3c0,1.2-1,2.3-2.3,2.3c-1.2,0-2.3-1-2.3-2.3s1-2.3,2.3-2.3
		S412.4,39.1,412.4,40.3C412.4,40.3,412.4,40.3,412.4,40.3z"/>
	<path id="elz0exeqz3qy8" class="st0" d="M398.8,40.3c0,1.2-1,2.3-2.3,2.3c-1.2,0-2.3-1-2.3-2.3c0-1.2,1-2.3,2.3-2.3c0,0,0,0,0,0
		C397.8,38.1,398.8,39.1,398.8,40.3C398.8,40.3,398.8,40.3,398.8,40.3z"/>
	<path id="el80yq1gp316i" class="st0" d="M405.6,40.3c0,1.2-1,2.3-2.3,2.3c-1.2,0-2.3-1-2.3-2.3s1-2.3,2.3-2.3
		S405.6,39.1,405.6,40.3C405.6,40.3,405.6,40.3,405.6,40.3z"/>
	<path id="elsza9m18oc8" class="st0" d="M539.9,74.1L539.9,74.1c-5.9,0-10.6-4.8-10.6-10.6l0,0c0-5.9,4.7-10.6,10.6-10.6
		c0,0,0,0,0,0l0,0c5.9,0,10.6,4.7,10.6,10.6c0,0,0,0,0,0l0,0C550.6,69.3,545.8,74.1,539.9,74.1z"/>
	<path id="eluvc972qn2ad" class="st0" d="M539.6,63.5c0.9-0.3,1.4-1.2,1.1-2.1c-0.3-0.9-1.2-1.4-2.1-1.1c-0.7,0.2-1.2,0.9-1.2,1.6
		c0,0.7,0.5,1.4,1.2,1.6c-1.4,0.3-2.5,1.5-2.5,2.9h5.9C542,65,541,63.8,539.6,63.5z"/>
	<path id="el0bxeuftl0mlc" class="st0" d="M542.9,64c-0.1,0-0.2-0.1-0.3-0.2v-2.7c0-0.1,0.1-0.3,0.2-0.3c0.1,0,0.3,0.1,0.3,0.2
		c0,0,0,0.1,0,0.1v2.7C543.1,63.9,543,64,542.9,64z"/>
	<path id="ellhkgeb3bki" class="st0" d="M544.2,62.7h-2.7c-0.1,0-0.3-0.1-0.3-0.2s0.1-0.3,0.2-0.3c0,0,0.1,0,0.1,0h2.7
		c0.1,0,0.3,0.1,0.3,0.2S544.5,62.6,544.2,62.7C544.3,62.7,544.3,62.7,544.2,62.7z"/>
	<g id="elrrsdakdh9v">
		<circle class="st0" cx="502.3" cy="181.4" r="8"/>
	</g>
	<path id="elakcll3gvpsb" class="st0" d="M500.7,179.6h1.4c0.7,0,1.3,0.6,1.3,1.3v1.4c0,0.7-0.6,1.3-1.3,1.3h-1.4
		c-0.7,0-1.3-0.6-1.3-1.3v-1.4C499.5,180.2,500,179.6,500.7,179.6z"/>
	<path id="elahi2yjl7kwk" class="st0" d="M503.8,182.3v-1.4l1-1.1c0.1-0.1,0.2-0.1,0.3,0c0,0,0.1,0.1,0.1,0.2v3.1
		c0,0.1-0.1,0.2-0.2,0.2c-0.1,0-0.1,0-0.2-0.1L503.8,182.3z"/>
	<path id="elxdbgl3u7jy8" class="st0" d="M472.8,187.1c-3.1-3.1-3.1-8,0-11.1s8-3.1,11.1,0c3.1,3.1,3.1,8,0,11.1
		C480.8,190.1,475.9,190.1,472.8,187.1z"/>
	<path id="elrutsc5oodq" class="st0" d="M474.9,182.8l1.4-0.3c0.2,0,0.3-0.2,0.3-0.4v-0.3c0,0-0.1-0.5,0.4-0.5s2.4,0,2.4,0
		s0.5,0,0.5,0.4v0.4c0,0.1,0.1,0.3,0.2,0.3l1.5,0.5c0.2,0,0.3,0,0.4-0.2l0.2-0.5c0-0.1,0.1-0.2,0-0.3c0-0.3-0.1-0.5-0.3-0.7
		c-0.3-0.4-1.7-1.3-4.4-1.2s-3.1,1.2-3.3,1.5c-0.1,0.2-0.1,0.5,0,0.7c0,0.1,0.1,0.2,0.1,0.3C474.6,182.7,474.7,182.8,474.9,182.8z"
		/>
	<g id="elarjgrdgn92">
		<circle class="st0" cx="454.4" cy="181.5" r="7.9"/>
	</g>
	<path id="el2alyoa2tn8a" class="st0" d="M451.9,182.2c-0.4,0-0.8-0.3-0.8-0.8c0-0.4,0.3-0.8,0.8-0.8c0.4,0,0.8,0.3,0.8,0.8
		c0,0,0,0,0,0C452.7,181.9,452.3,182.2,451.9,182.2z"/>
	<path id="el6v31nkwrumu" class="st0" d="M454.3,182.2c-0.4,0-0.8-0.4-0.8-0.8c0-0.4,0.3-0.8,0.8-0.8c0.4,0,0.8,0.3,0.8,0.8
		C455.1,181.9,454.8,182.2,454.3,182.2C454.3,182.2,454.3,182.2,454.3,182.2z"/>
	<path id="eldv22jdfc0nm" class="st0" d="M456.9,182.2c-0.4,0-0.8-0.3-0.8-0.8s0.3-0.8,0.8-0.8s0.8,0.3,0.8,0.8l0,0
		C457.7,181.9,457.4,182.2,456.9,182.2z"/>
	<circle id="el9j0e033gj4s" class="st0" cx="401.6" cy="62.8" r="5.1"/>
	<path id="elua8n0yyuiir" class="st0" d="M429.7,62c-3.2,0.3-6.3,0.3-9.5,0.3c-3.2,0.1-6.3,0-9.5-0.3c3.1-0.3,6.3-0.3,9.5-0.3
		C423.4,61.7,426.6,61.7,429.7,62z"/>
	<path id="elosc56lycsvg" class="st0" d="M440.6,78.4c1.5-1.9,3.4-3.8,3.8-6.2c0.4-2.2-0.6-4.7,0.4-6.7c1.2-2.5,4.8-3,6.3-5.3
		c0.7-1.1,0.9-2.5,1.7-3.7c1.3-1.9,3.8-2.5,6.1-2.4s4.5,0.8,6.8,0.9c3.2,0.1,6.4-1.1,9.4-0.4c3.4,0.8,5.6,3.7,7.9,6.4l3,3.2
		c0.6,0.5,1.3,1,2,1.4c1.3,0.6,2.5,1.3,3.7,2.1c2.2,2.1,2.3,5.7,0.1,7.9c0,0-0.1,0.1-0.1,0.1c2.5,0.7,4.3,3,4.3,5.6
		c-0.1,1.4-0.4,2.8-0.9,4.1c-0.5,1.3-0.4,2.8,0.1,4.1c0.6,1.3,2.3,2.1,3.5,1.3c-0.4,1.9-1.5,3.5-3.2,4.3c0.7,0.6,1.6,1,2.6,1
		c-2.3,6.1-9,9.6-15.6,9.9s-12.9-1.8-19-4l-17.7-3.7c-1.6-0.3-2.3-2.1-2.3-3.7s0.3-3.2-0.4-4.7c-0.9-2-3.3-2.9-4.2-4.9
		C437.8,83,439,80.4,440.6,78.4z"/>
	<path id="eluprvw1mwei" class="st0" d="M482.8,92.4c1.2-4,2-8.1,2.5-12.2c0.5-4.1-0.1-8.3-1.6-12.2c-0.3-0.6-2.3-4.4-3-4.3
		c-0.5,0.1,0.9,3.7,0.7,4.1c-1.8,3.9-2.5,8.3-1.8,12.6C480.3,84.5,481.3,88.6,482.8,92.4"/>
	<path id="eld9vc5oercy" class="st0" d="M482.4,76.6c-0.2-10.4-6.4-19-16.9-18.5l-1,0.1c-9.7,1-16.9,9.3-16.7,19
		c0.2,9,0.6,19,1.1,23.8c1.2,10,11.3,10.4,11.3,10.4l0.5,8.1l24-1.7L482.4,76.6z"/>
	<path id="el8p1gq4gksem" class="st0" d="M460.3,111.4c4.6-0.5,9-2.3,12.6-5.2c0,0-2.4,7.6-12.4,7.7L460.3,111.4z"/>
	<path id="elfbg39zwesd6" class="st0" d="M451.6,85.7c0.1,0.8,0.7,1.4,1.5,1.3c0.8,0,1.4-0.6,1.3-1.4c0,0,0,0,0,0
		c-0.1-0.8-0.8-1.4-1.5-1.3C452.2,84.3,451.6,84.9,451.6,85.7z"/>
	<path id="elyf87y0lvxj9" class="st0" d="M450.4,81c0.2,0.2,1.2-0.7,2.7-0.9s2.7,0.5,2.9,0.3s-0.1-0.4-0.7-0.7
		c-0.7-0.4-1.5-0.5-2.3-0.4c-0.8,0.1-1.6,0.4-2.1,1C450.4,80.6,450.3,81,450.4,81z"/>
	<path id="eljkx2m4hxhge" class="st0" d="M465.5,84.9c0.1,0.8,0.7,1.4,1.5,1.3c0.8,0,1.4-0.7,1.3-1.4c0,0,0,0,0,0
		c-0.1-0.8-0.7-1.3-1.5-1.3C466,83.4,465.4,84.1,465.5,84.9C465.4,84.8,465.4,84.8,465.5,84.9z"/>
	<path id="elfmu1ivk2776" class="st0" d="M465.5,80.1c0.2,0.2,1.2-0.7,2.7-0.9s2.7,0.5,2.9,0.3s-0.1-0.4-0.7-0.7
		c-0.7-0.4-1.5-0.5-2.3-0.5c-0.8,0.1-1.6,0.5-2.1,1C465.5,79.7,465.4,80,465.5,80.1z"/>
	<path id="elguwxnrpcf9q" class="st0" d="M461.2,92.4c-0.8-0.2-1.7-0.2-2.5-0.2c-0.4,0-0.8,0-0.9-0.3c-0.1-0.4,0-0.8,0.1-1.2
		c0.3-1,0.5-2,0.8-3.1c1.2-4.4,2-8,1.8-8.1s-1.3,3.5-2.4,7.9c-0.3,1.1-0.5,2.1-0.8,3.1c-0.2,0.5-0.2,1,0,1.6
		c0.1,0.3,0.4,0.5,0.7,0.5c0.2,0,0.5,0,0.7,0C459.6,92.7,460.4,92.6,461.2,92.4z"/>
	<path id="eldp1czd70w8e" class="st0" d="M465.8,93c-0.3,0-0.1,1.7-1.4,3s-3.1,1.3-3.1,1.6s0.4,0.3,1.2,0.2c1-0.1,1.9-0.5,2.6-1.2
		c0.7-0.7,1-1.6,1-2.5C466.2,93.4,466,93,465.8,93z"/>
	<path id="eln9to0fdy1i" class="st0" d="M464.9,73.9c0.2,0.4,1.7,0,3.5,0.1s3.3,0.4,3.5,0c0.1-0.2-0.2-0.6-0.8-0.9
		c-1.7-0.8-3.7-0.8-5.4,0C465.1,73.3,464.8,73.7,464.9,73.9z"/>
	<path id="elb1rbq27yozp" class="st0" d="M450.5,75.9c0.3,0.3,1.3-0.2,2.6-0.3s2.4,0,2.6-0.4c0.1-0.2-0.1-0.5-0.6-0.8
		c-1.4-0.7-3-0.4-4.2,0.6C450.5,75.4,450.4,75.7,450.5,75.9z"/>
	<path id="el7ht4d08wd87" class="st0" d="M482.4,84c0.2-0.1,6.6-2.7,7.1,4.1S483,94,483,93.8S482.4,84,482.4,84z"/>
	<path id="el5g4dy71tks" class="st0" d="M484.9,91.1c0,0,0.1,0.1,0.3,0.2c0.3,0.1,0.6,0.1,0.9-0.1c0.9-0.6,1.3-1.7,1.2-2.7
		c0-0.6-0.2-1.2-0.5-1.7c-0.2-0.4-0.5-0.8-1-0.8c-0.3-0.1-0.6,0.1-0.7,0.4c-0.1,0.2,0,0.3-0.1,0.3s-0.1-0.1-0.1-0.4
		c0-0.2,0.1-0.3,0.2-0.4c0.2-0.2,0.4-0.2,0.6-0.2c0.6,0.1,1.1,0.5,1.3,1c0.3,0.6,0.5,1.2,0.5,1.9c0.2,1.2-0.4,2.5-1.5,3.1
		c-0.4,0.1-0.8,0.1-1.1-0.1C484.9,91.3,484.9,91.1,484.9,91.1z"/>
	<path id="elnh1bcslkwvh" class="st0" d="M451.5,65.5c-1.1-0.5,1.9-4.3,4.6-5.8c4-2.1,10.2-3.7,14.1-2.8c4.6,1,8.6,3,11.1,7
		c2.5,4.1,3.8,8.8,3.9,13.5c0.2,1.5-0.1,2.9-0.7,4.2c-0.9,1.6-2.6,2.7-2.4,4.7c0.1,0.8-0.1,1.5-0.6,2.1c-1.2,1.4-2.8,0.3-3.6-0.9
		c-1.7-2.6-2-5.8-2.4-8.8c-0.4-2.2-0.4-4.4,0-6.5c0.3-1.2,0.7-2.3,0.9-3.4c0.3-1.2,0-2.4-0.7-3.4c-0.2-0.2-0.4-0.4-0.6-0.5
		c-2.1-1.6-4.8-1.9-7.2-0.9c-3.8,1.6-10.2,4.1-12,2.9c-1.3-0.7-2.4-1.7-3.3-2.9L451.5,65.5z"/>
	<path id="elj962txid3ms" class="st0" d="M469.8,56c-3.9-1.1-8-0.6-11.5,1.4c-1.9,1-3.3,2.7-3.8,4.8c-0.5,2.1,0.6,4.3,2.6,5.2
		l0.1,0.1c3,0.8,4.9,0.3,7.7-0.9c2.4-1,4.5-2.7,6.9-3.6c2.6-1.1,5.4-1.3,8.1-0.8C477.1,59.2,473.6,57.1,469.8,56z"/>
	<path id="elz4ch3la3x69" class="st0" d="M495.4,99.8c0,0-0.2,0-0.7,0c-0.7,0-1.3-0.3-1.8-0.7c-0.9-0.6-1.5-1.5-1.7-2.5
		c-0.3-1.4-0.3-2.8,0.1-4.1c0.3-1.5,1-3.1,1.4-4.9c0.2-1,0.3-1.9,0.1-2.9c-0.1-1.1-0.5-2-1.2-2.9c-0.8-0.8-1.7-1.4-2.7-1.7
		c-1-0.3-2-0.8-3-1.3c-1.9-1.3-3.2-3.2-3.8-5.4c-0.7-2.2-1-4.6-1.6-6.7c-0.5-2.2-1.5-4.2-3-5.8c-1.5-1.4-3.4-2.1-5.5-2.2
		c-1.7,0-3.4,0.3-5,1.1c-2.2,1.2-4.1,2.8-5.5,4.9c-0.5,0.7-0.9,1.3-1.1,1.7c-0.1,0.2-0.2,0.4-0.3,0.6c0.2-0.2,0.3-0.4,0.4-0.6
		c0.3-0.4,0.6-0.9,1.2-1.6c1.5-2,3.4-3.6,5.6-4.7c1.5-0.7,3.2-1.1,4.9-1c1.9,0,3.7,0.8,5.1,2.1c1.4,1.6,2.5,3.5,2.9,5.6
		c0.6,2.1,0.9,4.5,1.6,6.8c0.6,2.3,2,4.3,4,5.7c1,0.5,2,1,3.1,1.3c1,0.3,1.9,0.9,2.6,1.6c0.6,0.8,1,1.7,1.1,2.6
		c0.1,0.9,0.1,1.9-0.1,2.8c-0.4,1.8-1,3.4-1.3,4.9c-0.4,1.4-0.4,2.8,0,4.2c0.3,1.1,1,2,1.9,2.6c0.6,0.4,1.2,0.6,1.9,0.6
		C494.9,99.9,495.2,99.8,495.4,99.8z"/>
	<path id="eldch5d2qx51m" class="st0" d="M462.6,56c-0.7-0.1-1.4,0-2.1,0.3c-3.4,1.1-5.6,4.4-5.4,7.9c0,0.7,0.2,1.4,0.5,2
		c0.1,0-0.1-0.8-0.1-2c0-3.3,2.1-6.3,5.2-7.6C461.8,56.1,462.6,56,462.6,56z"/>
	<path id="elnr2pasihbw" class="st0" d="M448.8,62.8c-0.5,0.7-0.7,1.6-0.5,2.5c0,0.9,0.3,1.7,0.8,2.4c0.1-0.1-0.3-1.1-0.3-2.4
		S448.9,62.8,448.8,62.8z"/>
	<polygon id="elt386ltrrl8" class="st0" points="508,122.2 483.1,114.4 460.7,118.7 434.3,133.1 446.4,169.3 507.7,169.3 
		506.5,133.9 	"/>
	<polygon id="el4dse4zv7hh5" class="st0" points="460.3,119.8 460.3,116 485.1,112.3 484.9,119.8 459.8,122.5 	"/>
	<path id="elwpk3ijq9jz" class="st0" d="M521.7,130.9c-3.6-8.6-15.1-9.3-15.9-9.3l-1.7,6.8l3.1,34.5l1.5,6.4h26.8
		C531.3,155.6,524,136.5,521.7,130.9z"/>
	<path id="elpywz1z97ke" class="st0" d="M434.3,133.1c0,0-3.3,3.4-3.7,12.7s-1.6,23.4-1.6,23.4h19.6l1.3-13.8L434.3,133.1z"/>
	<path id="el7ufobpdhii" class="st0" d="M447,168.9c-0.1,0.1-1.8-4.3-3.7-9.7s-3.4-9.8-3.2-9.9c1.4,3.2,2.7,6.4,3.7,9.7
		C445,162.3,446.1,165.6,447,168.9z"/>
	<path id="elsfoo050g468" class="st0" d="M506.5,135c0.1,0,0.5,7.6,0.9,17s0.5,17,0.4,17s-0.5-7.6-0.9-17S506.4,135,506.5,135z"/>
</g>
<g id="freepik--character-2--inject-47">
	<polygon id="elt0kkx4xn0z" class="st0" points="320,476.4 311,476.4 307.7,436 318.2,436 	"/>
	<polygon id="elq40ddyy3iiq" class="st0" points="397.6,476.4 406.5,476.4 409.8,436 399.3,436 	"/>
	<path id="eltugoaui2gv9" class="st0" d="M416,441.1l-115.2,2.7l-3.5-74.4c-0.4-7.1,5.1-13.1,12.1-13.4c0.2,0,0.4,0,0.6,0h98.2
		c7.1,0,12.8,5.7,12.9,12.7c0,0.3,0,0.7,0,1L416,441.1z"/>
	<path id="elj22hfgj8918" class="st0" d="M421.9,369.2h-0.3h-0.9H417l-13.4,0c-11.3,0-26.9-0.1-44.1,0.3
		c-17.2,0.6-32.8,0.5-44.1,0.3c-5.6-0.1-10.2-0.2-13.4-0.3l-3.6-0.1l-1,0h-0.3c0.1,0,0.2,0,0.3,0h0.9h3.6l13.4,0.1
		c11.3,0.1,26.9,0.1,44.1-0.5c17.2-0.4,32.8-0.2,44.1-0.1L417,369h3.6h0.9C421.7,369,421.8,369.1,421.9,369.2z"/>
	<path id="elh503iufdex7" class="st0" d="M339.3,357.2c-2.6,0.4-5.1,1.1-7.5,2.2c-2.3,1.3-4.4,2.9-6.2,4.7c0.4-0.7,0.8-1.3,1.4-1.9
		c2.7-2.7,6.2-4.5,9.9-5.1C337.7,357.1,338.5,357.1,339.3,357.2z"/>
	<g id="elpzjmyvcacm">
		<g class="st1">
			<path id="eletmy5x76f47" class="st0" d="M324.5,356c3.4,3.8,9,5.5,14,6.3c9.1,1.4,18.4,2.1,27.5,0.6c5.8-1,11.6-2.9,17.5-2.5
				s12.1,3.3,17.9,1.6c3.2-0.9,5.8-3.1,7.4-5.9c0.5-0.9,0.8-2.2,0-2.9c-0.4-0.3-1.3,0.8-1.8,0.8C379.7,351.8,351.8,357.9,324.5,356"
				/>
		</g>
	</g>
	<g id="elprj7hd0mrx">
		<g class="st1">
			<path id="eluswfbdaq59" class="st0" d="M394.8,373.9c-0.5,2.5,0.7,5.1,2.5,7c1.9,1.7,4,3.2,6.3,4.4c3.7,2.1,7.4,4.6,9.7,8.2
				c4.4,6.8,2.8,15.8,4.6,23.7c0,0,1.6-34.1,1.2-33.3"/>
		</g>
	</g>
	<path id="elsw2w1h0739p" class="st0" d="M360,147.6c4.1,4.2,5.9,10.1,4.8,15.8c-0.5,2.7-1.7,5.8-0.1,8.1s5,2.6,6.5,5
		c1.7,2.8-0.4,6.3-0.1,9.6c0.4,3.1,3.1,5.5,6.2,5.6c-3.9,2.5-8.4,3.8-13,3.9l-2.9-4.9c1.1,1.7,0.5,4.1-1,5.6
		c-1.6,1.3-3.5,2.2-5.5,2.5c-9.8,1.8-19.8-1.1-27.2-7.8"/>
	<path id="ell3w5gh2spn" class="st0" d="M305.2,165.9c0.9-2,2.3-3.9,3-6c1.5-4.6-0.1-10.1,2.7-14c2-2.8,5.6-3.9,9-4.5s7-1.1,9.7-3.2
		c2-1.6,3.3-3.8,5.3-5.4c2.8-2.2,6.7-2.6,10.3-2.4c3.7,0.1,7.3,1.1,10.5,3c3.2,1.9,5.3,5.3,5.6,9c0.1,1.8-0.4,3.6,0,5.4
		c0.4,1.9,1.7,3.6,2.4,5.4c1.4,4.1-0.1,8.6-3.7,11l-28.9,29.4c-5.5,1.4-18-2.5-21.6-6.9S302.8,171,305.2,165.9z"/>
	<path id="elj12xrwst9a" class="st0" d="M359.8,159.9c-0.2-7.5-4.7-16.8-12.2-16.3l-23.4,4.9c-2.3,0.2-4,2-4.1,4.3l0.2,56h-0.2
		c0,0,4.6,16,20.1,11.8c3.1-0.8,4.6-4.1,5.4-7.5h0.2c0-0.4,0-0.8,0.1-1.2c0.4-2.5,0.5-5.1,0.4-7.7l0,0c0.2-4.5,0.3-6.4,0.3-6.3
		s9.6-1.2,12.1-13.5C359.8,178.4,359.9,168.3,359.8,159.9z"/>
	<path id="el4eyw6ik4ary" class="st0" d="M340.7,170.2c0,0.9-0.7,1.5-1.6,1.5c-0.8,0-1.6-0.6-1.6-1.5c0,0,0,0,0,0
		c0-0.9,0.7-1.6,1.6-1.6C340,168.7,340.7,169.3,340.7,170.2C340.7,170.2,340.7,170.2,340.7,170.2z"/>
	<path id="elmzn4188jlsf" class="st0" d="M357,170.2c0,0.9-0.7,1.5-1.6,1.5c-0.8,0-1.6-0.6-1.6-1.5c0,0,0,0,0,0
		c0-0.9,0.7-1.6,1.6-1.6C356.3,168.7,357,169.3,357,170.2C357,170.2,357,170.2,357,170.2z"/>
	<path id="eledqacnlvfui" class="st0" d="M358,165.4c-0.2,0.3-1.6-0.8-3.4-0.8s-3.2,1.2-3.4,0.9s0.1-0.6,0.7-1.1
		c1.6-1.4,3.9-1.4,5.5-0.1C357.9,164.8,358.1,165.3,358,165.4z"/>
	<path id="elzys2numpec" class="st0" d="M340.7,165.3c-0.3,0.2-1.6-1-3.6-1.1s-3.5,0.8-3.7,0.5s0.2-0.6,0.8-1c1.8-1.2,4.2-1,5.8,0.5
		C340.6,164.7,340.8,165.2,340.7,165.3z"/>
	<path id="el3vc0dauerii" class="st0" d="M346.2,177.7c0.9-0.2,1.9-0.4,2.8-0.4c0.4,0,0.9-0.1,0.9-0.4c0.1-0.5,0-0.9-0.2-1.3
		c-0.4-1.1-0.8-2.2-1.2-3.4c-1.6-4.8-2.8-8.8-2.5-8.9s1.6,3.8,3.3,8.6c0.4,1.2,0.8,2.3,1.1,3.4c0.3,0.5,0.3,1.2,0.2,1.7
		c-0.1,0.3-0.4,0.5-0.7,0.6c-0.2,0.1-0.5,0.1-0.8,0.1C348.1,177.9,347.1,177.9,346.2,177.7z"/>
	<path id="elngjt5l1wca" class="st0" d="M346.5,198.1c-5.9-0.1-11.6-1.9-16.5-5.1c0,0,3.7,8.7,16.2,8L346.5,198.1z"/>
	<path id="ellh2w29oayw" class="st0" d="M345.3,181.8c-0.6-0.9-1.7-1.3-2.7-1.3c-0.8,0-1.5,0.4-2,1c-0.5,0.6-0.6,1.4-0.2,2
		c0.5,0.6,1.4,0.9,2.2,0.7c0.8-0.3,1.6-0.7,2.3-1.2c0.2-0.1,0.4-0.3,0.5-0.5C345.5,182.3,345.5,182.1,345.3,181.8"/>
	<path id="el4lomeq4wo12" class="st0" d="M341.1,178.7c0.3,0,0.2,1.9,1.8,3.2s3.5,1.3,3.5,1.5s-0.5,0.4-1.3,0.3
		c-1.1,0-2.1-0.4-3-1.2c-0.8-0.7-1.3-1.7-1.4-2.7C340.7,179.2,341,178.7,341.1,178.7z"/>
	<path id="elamh5o0m369p" class="st0" d="M341.2,159.5c-0.2,0.5-1.9,0.2-3.9,0.3s-3.7,0.6-3.9,0.2c-0.1-0.2,0.2-0.6,0.9-1.1
		c0.9-0.5,1.9-0.8,2.9-0.9c1-0.1,2.1,0.1,3,0.5C340.9,158.9,341.3,159.3,341.2,159.5z"/>
	<path id="elm0a2ho8kf6" class="st0" d="M356.9,160.1c-0.4,0.4-1.7-0.1-3.3-0.2s-3,0.1-3.3-0.3c-0.1-0.2,0.1-0.6,0.7-0.9
		c0.8-0.4,1.8-0.6,2.7-0.5c0.9,0,1.8,0.4,2.6,0.9C356.9,159.5,357.1,160,356.9,160.1z"/>
	<path id="elf1adkb40ugf" class="st0" d="M318.9,149.7c1.3-1.6,3.5-2.3,5.5-2.8c8.8-2.3,17.8-3.5,26.9-3.6c0.9,2-0.4,4.3-2.3,5.5
		s-4,1.4-6.1,1.9s-4.3,1.4-5.4,3.3s-0.7,4.6-1.7,6.6c-1.8,3.5-7,4.1-8.8,7.7c-1.3,2.7,0,5.8,0,8.8c0.1,5.9-4.6,10.8-10.4,10.9
		c-0.5,0-0.9,0-1.4-0.1c0.6-10.7,1.3-21.3,1.9-32C317.3,153.8,317.5,151.4,318.9,149.7z"/>
	<path id="elxfjav3zyd4g" class="st0" d="M294.5,174c1.9-1.3,4.1-2.4,5-4.4c1.3-3-0.7-7,1.2-9.6c1.8-2.4,6.1-1.8,7.8-4.3
		c1.3-1.9,0.3-3.9,0.9-5.7s3.4-3.1,5.2-2.6l12,22.7c0.5,7.2,1.4,11.1-0.6,15c-1.1,2.2-2.4,4.2-3,6.6s-0.3,5.1,1.5,6.8
		c-8.7-0.3-16.3-5.8-23.3-11.1l-7.4-5.6c-0.8-0.5-1.5-1.2-2-2.1C290.9,177.6,292.6,175.3,294.5,174z"/>
	<path id="el3eiymie9u3o" class="st0" d="M301.2,185.1c0.3,0.1,0.6,0.2,0.9,0.3c0.9,0.2,1.8,0.2,2.7,0.1c3.5-0.4,6.3-2.9,7.1-6.3
		c0.3-1.1,0.3-2.2,0.1-3.4c-0.3-1.2-0.7-2.3-1.2-3.4c-0.6-1.1-1-2.3-1.3-3.5c-0.3-1.3,0.1-2.6,0.9-3.6c0.9-1,2.4-1,3.8-1.4
		c1.6-0.3,2.8-1.7,2.9-3.3c0.2-1.6-0.3-3.1-0.5-4.6c-0.1-0.7,0-1.5,0.3-2.2c0.3-0.7,0.8-1.3,1.5-1.6c1.4-0.6,3-0.8,4.5-0.6
		c1.6,0.1,3.2-0.1,4.6-0.8c1.4-0.6,2.6-1.7,3.4-2.9c0.7-1.2,1.3-2.6,1.6-4c0.3-1.3,0.7-2.6,1.3-3.8c0.6-1.1,1.4-2.1,2.4-2.8
		c3.4-2.6,8-2.7,11.5-0.3c1.2,0.8,2.2,1.8,3,2.9c0.7,1,1.3,2.1,1.7,3.2c0-0.1,0-0.2-0.1-0.2c0-0.1-0.1-0.4-0.2-0.7
		c-0.3-0.8-0.8-1.7-1.3-2.4c-0.8-1.2-1.8-2.2-3-3.1c-3.6-2.6-8.4-2.5-11.9,0.2c-1,0.8-1.9,1.8-2.5,3c-0.6,1.2-1,2.5-1.4,3.9
		c-0.3,1.4-0.9,2.7-1.6,3.9c-0.8,1.2-1.9,2.2-3.3,2.8c-1.4,0.6-2.9,0.9-4.4,0.7c-1.6-0.2-3.3,0-4.8,0.7c-0.8,0.4-1.4,1.1-1.7,1.9
		c-0.3,0.8-0.4,1.6-0.3,2.4c0.3,1.5,0.4,3,0.5,4.5c0,0.7-0.3,1.4-0.7,1.9c-0.5,0.5-1.1,0.8-1.8,1c-0.7,0.2-1.4,0.3-2.1,0.5
		c-0.7,0.2-1.4,0.5-1.9,1.1c-0.9,1.1-1.3,2.6-1,4c0.3,1.3,0.7,2.5,1.3,3.6c0.5,1,1,2.1,1.2,3.3c0.2,1.1,0.2,2.1-0.1,3.2
		c-0.4,1.8-1.4,3.5-2.9,4.6c-1.1,0.9-2.4,1.4-3.9,1.6C303.6,185.5,302.4,185.4,301.2,185.1z"/>
	<path id="eldj4unmxhggo" class="st0" d="M291.4,168.9c-0.2,0.2-0.3,0.4-0.4,0.7c-0.2,0.7-0.2,1.5,0.1,2.2c0.2,0.5,0.6,1,1,1.3
		c0.5,0.4,1.1,0.6,1.8,0.7c1.6,0.1,3.2-0.6,4.1-2c0.5-0.8,0.8-1.7,0.9-2.6c0.1-1,0-2-0.3-2.9c-0.5-2-1.5-3.9-1.3-6.1
		c0-1.1,0.5-2.1,1.4-2.9c1-0.6,2.1-0.8,3.3-0.6c1.3,0.2,2.5,0.3,3.8,0.1c0.7-0.2,1.3-0.6,1.7-1.1c0.4-0.5,0.7-1.2,0.9-1.8
		c0.2-1.3,0.3-2.6,0.1-3.9c-0.1-1.2,0.2-2.4,0.6-3.5c0.9-2.1,2.5-3.9,4.6-4.8c2-0.7,4.1-1,6.2-0.7c1.9,0.2,3.7,0.1,5.6-0.2
		c1.5-0.4,2.9-1.1,4.2-2c0.9-0.7,1.8-1.5,2.5-2.5c0.6-0.8,1.1-1.7,1.4-2.6c-0.4,0.9-0.9,1.7-1.5,2.5c-0.7,0.9-1.5,1.7-2.5,2.4
		c-1.2,0.9-2.6,1.5-4.1,1.9c-1.8,0.3-3.6,0.4-5.5,0.1c-2.1-0.3-4.3-0.1-6.4,0.6c-2.2,1-4,2.8-4.9,5.1c-0.5,1.2-0.7,2.5-0.7,3.7
		c0.1,1.3,0.1,2.5-0.1,3.8c-0.2,1.2-1,2.2-2.2,2.6c-1.2,0.2-2.4,0.2-3.6-0.1c-1.3-0.2-2.5,0-3.6,0.7c-0.9,0.8-1.5,2-1.5,3.2
		c-0.1,1.1,0.1,2.3,0.4,3.3c0.3,1,0.7,2,0.9,2.9c0.3,0.9,0.4,1.8,0.3,2.8c-0.1,0.9-0.4,1.7-0.8,2.4c-0.8,1.3-2.2,2-3.7,1.9
		c-0.6,0-1.2-0.3-1.7-0.6c-0.4-0.3-0.7-0.7-0.9-1.2c-0.3-0.6-0.4-1.4-0.2-2.1C291.3,169.1,291.5,168.9,291.4,168.9z"/>
	<path id="elsbyex6eqqz" class="st0" d="M382,184.7c0.2,0.8,0.1,1.6-0.3,2.3c-0.4,0.8-1.1,1.4-2,1.6c-1.2,0.2-2.4-0.3-3.1-1.2
		c-0.4-0.6-0.6-1.2-0.5-1.9c0.1-0.7,0.3-1.5,0.6-2.1c0.6-1.4,1.8-2.9,1.8-4.8c0.1-2-0.6-3.9-2-5.3c-0.7-0.7-1.6-1.3-2.5-1.7
		c-1-0.4-2-0.7-3-0.8c-1-0.1-2-0.4-3-0.7c-0.9-0.3-1.7-0.9-2.2-1.7c-0.4-0.8-0.6-1.7-0.5-2.6c0.1-0.9,0.2-1.8,0.5-2.6
		c0.7-1.6,1.1-3.3,1.4-5c0.1-1.5-0.3-3.1-1-4.4c-0.7-1.1-1.5-2-2.5-2.7c-0.7-0.6-1.4-1.2-2.1-1.8c-0.5-0.6-0.9-1.3-1.2-2
		c0,0,0,0,0,0.1c0,0.2,0.1,0.3,0.1,0.4c0.2,0.6,0.5,1.1,0.9,1.5c0.6,0.7,1.3,1.3,2,1.9c1,0.7,1.8,1.6,2.4,2.7c0.7,1.3,1,2.7,0.9,4.2
		c-0.3,1.7-0.7,3.3-1.4,4.9c-0.3,0.9-0.5,1.8-0.6,2.8c-0.1,1,0.1,2,0.6,2.9c0.5,0.9,1.4,1.6,2.4,1.9c1,0.3,2,0.6,3,0.7
		c1,0.1,2,0.4,2.9,0.8c0.9,0.4,1.7,0.9,2.4,1.6c1.3,1.3,2,3.1,1.9,4.9c0,1.8-1.1,3.2-1.8,4.7c-0.3,0.7-0.5,1.5-0.6,2.3
		c0,0.8,0.2,1.5,0.6,2.1c0.8,1.1,2.1,1.6,3.4,1.3c0.9-0.2,1.7-0.9,2.1-1.8c0.3-0.5,0.4-1.2,0.3-1.8
		C382.1,185.1,382.1,184.9,382,184.7z"/>
	<path id="elkstz8hr0p" class="st0" d="M426.4,294.9l-4.4-6.7l-7.1-3.6l-0.3-0.2c-2.3-1.7-5.2-2.2-8-1.5c-2.9,0.8-6.7,1.7-10.1,2.3
		l-7.6-2.1V298l38.5-2.4L426.4,294.9z"/>
	<path id="els5407hkqtn" class="st0" d="M426.1,294.4c-0.5-0.5-1-1-1.6-1.5c-1-0.9-2.5-2-4.1-3.3l-1.5-1.2l0,0h-0.1
		c-1.6-0.3-3-0.5-3.9-0.7c-0.5-0.1-1-0.2-1.6-0.2c0.5,0.2,1,0.4,1.5,0.5c1,0.2,2.3,0.5,3.9,0.9l-0.1,0l1.4,1.1
		c1.6,1.3,3.1,2.4,4.2,3.2C424.8,293.7,425.4,294.1,426.1,294.4z"/>
	<path id="el4buj27tyvwd" class="st0" d="M423.1,295.7c-1.8-1.2-3.6-2.4-5.5-3.3l-1.4-0.7l0,0h0c-1.6-0.2-3.3-0.2-4.9-0.1
		c1.6,0.3,3.3,0.5,4.9,0.5H416l1.4,0.8C419.2,294,421.1,294.9,423.1,295.7z"/>
	<path id="eladqxfx9sbjp" class="st0" d="M471.2,252.7c-1.3-0.7-2.9-0.4-3.8,0.8l-31,42l-49.1,0.7c-2,0.1-4.3,4.1-2.6,6l55.4-0.8
		l32-44.5c0.9-1.3,0.7-3.1-0.7-4.1C471.4,252.8,471.3,252.8,471.2,252.7z"/>
	<path id="elosqqbstdu0a" class="st0" d="M471.2,252.7c0.1,0,0.2,0.1,0.3,0.1c0.2,0.1,0.4,0.3,0.6,0.6c0.7,0.9,0.9,2,0.5,3.1
		c-0.4,0.7-0.8,1.4-1.3,2l-1.6,2.3l-4,5.7l-25.2,35.1l-0.1,0.1h-0.1l-54.4,0.8h-1h-0.1l-0.1-0.1c-0.5-0.6-0.7-1.3-0.7-2
		c0-0.7,0.2-1.4,0.5-2c0.3-0.6,0.7-1.2,1.2-1.6c0.5-0.5,1.2-0.8,1.9-0.9l7.6-0.1l14.6-0.2l26.7-0.3l-0.2,0.1
		c10.1-13.6,18.5-24.9,24.4-32.9l6.9-9.2c0.7-0.8,1.7-1.2,2.8-1C470.6,252.3,470.9,252.5,471.2,252.7c-0.3-0.2-0.6-0.3-1-0.3
		c-1-0.2-2,0.2-2.6,1l-6.8,9.3l-24.2,33l-0.1,0.1h-0.1l-26.7,0.4l-14.6,0.2l-7.6,0.1c-0.6,0-1.1,0.3-1.5,0.7
		c-0.4,0.4-0.8,0.9-1.1,1.5c-0.7,1-0.6,2.4,0.1,3.4l-0.2-0.1h1l54.4-0.7l-0.2,0.1c10.5-14.4,19.2-26.5,25.3-35
		c1.5-2.1,2.9-4,4.1-5.6l1.7-2.3c0.5-0.6,0.9-1.3,1.3-1.9c0.4-1,0.3-2.1-0.4-3C471.8,253.1,471.5,252.9,471.2,252.7z"/>
	<path id="el1iddv7eua1t" class="st0" d="M322.5,204.1c-3.1,0.5-5.9,1.8-8.3,3.9c-3,3-5.3,6.7-6.6,10.8c-1.6,4.9-0.9,24.3-0.9,29.9
		s1.4,26.7,2.1,30.2s-0.5,8.7-2.1,12.1c-2.9,6.1,1.6,9.2,1.6,9.2l60.2-0.5l-0.2-2.2c-0.4-3.9,1-7.9-0.5-11.5
		c-2.2-5.3-3.2-11.1-2.8-16.9c0.8-10,3.8-16.9,1.9-22.7c-2.8-8.9-12.1-29.1-23.3-37.7c0,0-8.8-1.9-10.8-2.6
		C328.5,204.5,326.1,203.7,322.5,204.1z"/>
	<path id="elhq9kxbm42nu" class="st0" d="M393.3,281.4l-51.4-10.7l-1.3-44.7c0,0-1.8-18.2-10.9-19.9l-21.9,27.3
		c1.2,13.8,0.1,39.8,6.4,49.9s12.5,18.1,28.1,17.4s49.9-1,49.9-1L393.3,281.4z"/>
	<path id="eldlgqvpi60q" class="st0" d="M342,270.8c0.1,0.1-1.1,1.7-2.1,4s-1.5,4.2-1.6,4.2c0-1.5,0.5-3,1.2-4.4
		C339.9,273.2,340.8,271.9,342,270.8z"/>
	<g id="elcaa2y8jhzuf">
		<g class="st1">
			<path id="eljjomjjavbia" class="st0" d="M340.2,224.1c5.1,15.8,4,40.1,13.8,49.1l-12.1-2.5c0.2-2.9,0.3-5.7,0.1-8.6
				C341,249.6,340.9,236.9,340.2,224.1"/>
		</g>
	</g>
	<path id="el205wg6ojnj" class="st0" d="M339.1,218.5c0.4,1.2,0.7,2.4,0.9,3.6c0.3,1.5,0.5,2.9,0.6,4.4c0.2,1.8,0.2,3.8,0.3,6.1
		c0.3,9.1,0.7,22.2,1.2,38.1l-0.2-0.2l51.5,10.7l0.2,0v0.2c-0.4,5.9-0.8,12-1.2,18.3v0.2h-0.2l-6.3,0.1c-8.9,0.1-17.7,0.3-26.1,0.4
		c-4.2,0.1-8.3,0.2-12.4,0.3c-4,0.1-8,0.5-11.9-0.1c-1.9-0.3-3.8-0.8-5.6-1.4c-1.7-0.7-3.4-1.6-4.9-2.7c-2.9-2.2-5.4-4.8-7.4-7.7
		c-1-1.4-2-2.8-2.9-4.2l-0.7-1c-0.2-0.4-0.4-0.7-0.6-1.1s-0.4-0.7-0.6-1.1s-0.3-0.8-0.4-1.1c-1.1-2.9-1.9-5.9-2.3-8.9
		c-0.8-5.2-1.3-10.5-1.5-15.8c-0.2-4.6-0.3-8.6-0.5-11.9s-0.2-5.8-0.3-7.5c0-0.9-0.1-1.5-0.1-2s0-0.7,0-0.7s0,0.2,0.1,0.7
		s0.1,1.1,0.2,2c0.1,1.7,0.3,4.3,0.4,7.5s0.3,7.3,0.5,11.9c0.2,5.3,0.8,10.5,1.6,15.7c0.5,3,1.2,6,2.3,8.8l0.4,1.1l0.6,1.1
		c0.2,0.4,0.4,0.7,0.6,1.1l0.7,1c0.9,1.4,1.8,2.8,2.8,4.2c2,2.9,4.5,5.5,7.3,7.6c1.5,1.1,3.1,2,4.9,2.6c1.8,0.7,3.6,1.1,5.5,1.4
		c3.8,0.6,7.8,0.2,11.8,0.1s8.2-0.3,12.4-0.4c8.4-0.2,17.2-0.3,26.1-0.4l6.3-0.1l-0.3,0.3c0.4-6.3,0.8-12.4,1.2-18.3l0.2,0.3
		l-51.4-10.8h-0.2v-0.2c-0.4-16-0.8-29-1-38.1c-0.1-2.3-0.1-4.3-0.2-6.1c-0.1-1.5-0.3-3-0.6-4.4c-0.2-1.2-0.4-2.1-0.6-2.7
		c-0.1-0.3-0.1-0.5-0.2-0.7C339.1,218.6,339.1,218.6,339.1,218.5z"/>
	<polygon id="elgd7k1wqsmu9" class="st0" points="421.6,391 414,447.3 434,450.5 448.2,400.6 	"/>
	<path id="elrhsa54zysnn" class="st0" d="M361.1,304.6c0,0,85.2-8.1,91.5-2.3s11.6,18.4,9.5,22.6s-6.9,18.4-6.9,18.4l-39.2-9
		L361.1,304.6z"/>
	<polygon id="elw31w1dvv48m" class="st0" points="416,343.3 400.2,367.4 418.8,379.5 439,348.5 	"/>
	<path id="elkn4y08n63nm" class="st0" d="M309.9,300.1c0,0-7.4,33.7,4.7,47.4s30,13.7,48.4,11.1s62.2-3.6,62.2-3.6s-2,12-3.4,25.6
		s-1.7,22.2-1.7,22.2l27.4,2.3c0,0,15.3-46.4,17.6-55.6s1.5-21.5-6.6-26.1c-6.9-3.9-61.1-18.9-87.1-21.2l-2.8-2.4L309.9,300.1z"/>
	<path id="el5hkr2exfe94" class="st0" d="M438.7,343.9c0,0.1-1.1,0.2-2.7,0.8c-0.9,0.3-1.9,0.8-2.7,1.3c-1.1,0.6-2.1,1.3-3,2.2
		c-0.9,0.8-1.7,1.7-2.5,2.7c-0.6,0.8-1.1,1.7-1.5,2.6c-0.8,1.5-1,2.6-1.1,2.6s0-0.3,0.1-0.8c0.2-0.7,0.4-1.4,0.6-2
		c0.4-1,0.9-1.9,1.5-2.7c0.7-1,1.6-2,2.5-2.9c1-0.8,2-1.6,3.1-2.2c0.9-0.5,1.9-0.9,2.9-1.2c0.7-0.2,1.3-0.4,2-0.5
		C438.1,343.8,438.4,343.8,438.7,343.9z"/>
	<path id="el894lfjwaqqi" class="st0" d="M435.4,315.8c0.7-2,1.9-3.8,3.5-5.2c-0.4,1-1,1.9-1.7,2.7
		C436.8,314.2,436.1,315,435.4,315.8z"/>
	<path id="elalpdm7cvegh" class="st0" d="M466.3,336.5c0,0,0-0.1-0.1-0.3l-0.2-0.8c-0.2-0.7-0.4-1.7-0.8-3c-0.5-1.5-1.2-3-2-4.4
		c-1-1.9-2.5-3.4-4.4-4.5c-5.1-2.2-10.4-4.1-15.8-5.6c-6-1.8-12.7-3.7-19.8-5.6c-14.1-3.8-27-6.4-36.5-8c-4.7-0.8-8.5-1.3-11.2-1.7
		l-3-0.4c-0.3,0-0.6-0.1-0.8-0.1l-0.3,0h0.3l0.8,0.1l3.1,0.3c2.7,0.3,6.5,0.8,11.2,1.5c12.3,2,24.5,4.7,36.6,7.9
		c7.1,1.9,13.7,3.8,19.8,5.6c5.4,1.5,10.7,3.4,15.8,5.7c1.9,1.1,3.5,2.7,4.5,4.6c0.8,1.4,1.4,2.9,1.9,4.5c0.4,1.3,0.6,2.3,0.7,3
		c0,0.3,0.1,0.6,0.1,0.8C466.3,336.4,466.3,336.4,466.3,336.5z"/>
	<path id="el4vx77r7jf4s" class="st0" d="M435.5,449.1l0.7-2.4c-8.2-0.7-15.9-4-22-9.5l-6.8,14.6l45.1,20.1
		C454.2,467.5,435.5,449.1,435.5,449.1z"/>
	<path id="elcwvacnwq864" class="st0" d="M407.4,451.8l1.6-3.6l42.8,20.6c0,0,1.6,1.8,0.7,3L407.4,451.8z"/>
	<path id="el24rchsdclom" class="st0" d="M434.9,448.8c-0.1,0.2-1.3-0.2-2.7,0s-2.4,0.9-2.6,0.7s0.7-1.3,2.5-1.5
		S435.1,448.6,434.9,448.8z"/>
	<path id="elrtk7q2pzuik" class="st0" d="M417.4,447.2c-0.3,0.6-1.1,0.9-1.7,0.6c-0.6-0.3-0.9-1-0.6-1.6c0,0,0,0,0,0
		c0.3-0.6,1.1-0.9,1.7-0.6C417.4,445.8,417.7,446.6,417.4,447.2C417.4,447.2,417.4,447.2,417.4,447.2z"/>
	<path id="elyaeneuewlc" class="st0" d="M434.7,448.5c-0.3,0-0.7-0.1-1-0.2c-1-0.2-1.8-0.7-2.6-1.3c-0.2-0.2-0.4-0.5-0.6-0.8
		c-0.2-0.3-0.3-0.6-0.4-1c0-0.5,0.3-0.9,0.7-1.1c0.4-0.2,0.9-0.1,1.4,0.1c1.7,0.8,2.8,2.5,2.8,4.4l-0.7-0.1c0.1-0.3,0.3-0.7,0.4-1
		c1-1.7,2.9-2.8,4.9-2.8c0.3,0,0.5,0,0.8,0.1c0.3,0.1,0.5,0.4,0.5,0.7c0.1,0.5-0.1,0.9-0.3,1.3c-0.4,0.6-1,1.1-1.7,1.4
		c-1,0.4-2,0.5-3.1,0.5C435.4,448.7,435,448.7,434.7,448.5c0.4,0,0.7-0.1,1.1-0.1c1,0,2-0.2,2.9-0.6c0.6-0.3,1.1-0.7,1.5-1.3
		c0.2-0.3,0.3-0.6,0.2-0.9c-0.1-0.3-0.3-0.3-0.7-0.3c-1.8,0-3.4,1-4.3,2.5c-0.2,0.3-0.3,0.6-0.4,0.9c-0.1,0.2-0.3,0.3-0.4,0.2
		c-0.1,0-0.2-0.2-0.2-0.3c0-1.6-0.9-3.1-2.4-3.9c-0.6-0.3-1.3,0-1.3,0.5c0.1,0.6,0.4,1.1,0.8,1.5c0.6,0.6,1.4,1.1,2.3,1.4
		C434,448.2,434.4,448.4,434.7,448.5z"/>
	<path id="eltlc9tfivlih" class="st0" d="M438.4,451.9c-1,0-2,0.1-3,0.2c-1,0.3-1.9,0.7-2.7,1.2c0.6-0.9,1.5-1.5,2.6-1.7
		C436.3,451.3,437.4,451.4,438.4,451.9z"/>
	<path id="elernf6og1u1" class="st0" d="M440.9,454.8c0,0.1-1.2,0.1-2.6,0.5s-2.4,1.1-2.5,1C437.1,454.9,439,454.3,440.9,454.8
		L440.9,454.8z"/>
	<path id="elilumzmlrd1g" class="st0" d="M422.3,376.8l1.1-2.3c-7.9-2.1-15-6.7-20.1-13.1l-9.1,13.3l41.1,27.4
		C437.6,398.1,422.3,376.8,422.3,376.8z"/>
	<path id="elke4zeoxv04" class="st0" d="M394.1,374.7l2.2-3.3L435,399c0,0,1.3,2,0.2,3.1L394.1,374.7z"/>
	<path id="el2wwmcg4azqr" class="st0" d="M421.8,376.4c-0.1,0.2-1.2-0.4-2.6-0.4s-2.5,0.4-2.6,0.2s1-1.1,2.7-1.1
		S421.9,376.2,421.8,376.4z"/>
	<path id="elik3uzv48hxh" class="st0" d="M404.7,371.9c-0.4,0.6-1.2,0.7-1.8,0.3c-0.6-0.4-0.7-1.2-0.3-1.7c0,0,0,0,0,0
		c0.4-0.6,1.2-0.7,1.8-0.3C405,370.5,405.1,371.3,404.7,371.9C404.7,371.9,404.7,371.9,404.7,371.9z"/>
	<path id="el6sbto7bfxzl" class="st0" d="M421.5,376c-0.4-0.1-0.7-0.2-1-0.4c-0.9-0.4-1.7-1-2.3-1.8c-0.2-0.3-0.3-0.6-0.5-0.9
		c-0.2-0.3-0.2-0.7-0.2-1.1c0-0.5,0.4-0.9,0.9-1c0.5-0.1,0.9,0,1.3,0.3c1.5,1.1,2.3,3,2,4.8l-0.6-0.2c0.2-0.3,0.4-0.6,0.6-0.9
		c1.3-1.5,3.3-2.3,5.3-1.9c0.3,0,0.5,0.1,0.7,0.3c0.2,0.2,0.4,0.4,0.4,0.7c0,0.5-0.2,0.9-0.5,1.2c-0.5,0.5-1.2,0.9-1.9,1.1
		c-1,0.2-2.1,0.2-3.1-0.1C422.2,376.3,421.9,376.2,421.5,376c0.3-0.1,0.7-0.1,1.1,0c1,0.2,2,0.1,3-0.1c0.6-0.2,1.2-0.5,1.6-1
		c0.2-0.2,0.4-0.5,0.4-0.8c0-0.3-0.2-0.4-0.6-0.4c-1.7-0.3-3.5,0.4-4.6,1.7c-0.2,0.2-0.4,0.5-0.5,0.8c-0.1,0.2-0.3,0.2-0.5,0.1
		c-0.1-0.1-0.2-0.2-0.2-0.3c0.2-1.6-0.4-3.2-1.7-4.2c-0.5-0.4-1.3-0.3-1.3,0.3c0,0.6,0.2,1.2,0.5,1.6c0.5,0.7,1.2,1.4,2,1.8
		C421.3,375.8,421.6,376,421.5,376z"/>
	<path id="el6t2sjfms2yw" class="st0" d="M424.7,380.1c-1-0.2-2-0.3-3-0.3c-1,0.2-2,0.4-2.9,0.7c0.7-0.8,1.8-1.3,2.9-1.3
		C422.7,379.1,423.8,379.4,424.7,380.1z"/>
	<path id="elekwzd60toew" class="st0" d="M426.7,383.3c0,0.1-1.2-0.1-2.7,0.1s-2.6,0.7-2.6,0.5C422.8,382.8,424.9,382.5,426.7,383.3
		L426.7,383.3z"/>
</g>
<g id="freepik--character-1--inject-47">
	<polygon id="el0jn4dl46e88d" class="st0" points="295.2,200.7 271.4,178.8 271.4,94.2 103.9,94.2 103.9,255.2 103.9,255.2 
		271.4,255.2 271.4,200.7 	"/>
	<rect id="el2jyuxb14es" x="103.9" y="94.2" class="st0" width="167.5" height="12.1"/>
	<polygon id="elnw2bivqzfs" class="st0" points="104,229.6 104,255.2 240.7,255.2 262.7,255.2 271.4,255.2 271.4,229.6 	"/>
	<path id="el2cy8ibl6olv" class="st0" d="M127.6,100.7c0,1.2-1,2.3-2.3,2.3c-1.2,0-2.3-1-2.3-2.3c0-1.2,1-2.3,2.3-2.3
		S127.6,99.5,127.6,100.7C127.6,100.7,127.6,100.7,127.6,100.7z"/>
	<path id="el6r6xseezfi8" class="st0" d="M114,100.7c0,1.2-1,2.3-2.3,2.3c-1.2,0-2.3-1-2.3-2.3c0-1.2,1-2.3,2.3-2.3
		S114,99.5,114,100.7C114,100.7,114,100.7,114,100.7z"/>
	<path id="elhe5vjvcse3g" class="st0" d="M120.8,100.7c0,1.2-1,2.3-2.3,2.3c-1.2,0-2.3-1-2.3-2.3c0-1.2,1-2.3,2.3-2.3
		S120.8,99.5,120.8,100.7C120.8,100.7,120.8,100.7,120.8,100.7z"/>
	<path id="elvtr3wulhcma" class="st0" d="M255.1,134.4L255.1,134.4c-5.9,0-10.6-4.8-10.6-10.6l0,0l0,0c0-5.9,4.7-10.6,10.6-10.6
		c0,0,0,0,0,0l0,0c5.9,0,10.6,4.7,10.6,10.6c0,0,0,0,0,0l0,0C265.8,129.7,261,134.4,255.1,134.4
		C255.2,134.4,255.2,134.4,255.1,134.4z"/>
	<path id="eliy77tdt3hbj" class="st0" d="M254.8,123.9c0.9-0.3,1.4-1.2,1.1-2.1c-0.3-0.9-1.2-1.4-2.1-1.1c-0.9,0.3-1.4,1.2-1.1,2.1
		c0.2,0.5,0.6,1,1.1,1.1c-1.4,0.2-2.5,1.5-2.5,2.9h5.9C257.2,125.4,256.2,124.2,254.8,123.9z"/>
	<path id="eldzoc8s28zy7" class="st0" d="M258.1,124.4c-0.1,0-0.2-0.1-0.2-0.2v-2.7c0-0.1,0.1-0.3,0.2-0.3s0.3,0.1,0.3,0.2
		c0,0,0,0.1,0,0.1v2.7C258.3,124.3,258.2,124.4,258.1,124.4z"/>
	<path id="elytji5gpgnka" class="st0" d="M259.5,123h-2.7c-0.1,0-0.3-0.1-0.3-0.2c0-0.1,0.1-0.3,0.2-0.3c0,0,0.1,0,0.1,0h2.7
		c0.1,0,0.3,0.1,0.3,0.2C259.8,122.8,259.7,123,259.5,123C259.5,123,259.5,123,259.5,123z"/>
	<g id="el6tp72p5zfcc">
		<circle class="st0" cx="217.5" cy="241.8" r="7.9"/>
	</g>
	<path id="elfpmuxpp90zk" class="st0" d="M215.9,239.9h1.4c0.7,0,1.3,0.6,1.3,1.3v1.4c0,0.7-0.6,1.3-1.3,1.3h-1.4
		c-0.7,0-1.3-0.6-1.3-1.3v-1.4C214.7,240.5,215.2,239.9,215.9,239.9z"/>
	<path id="el54hcyj4dykh" class="st0" d="M219,242.6v-1.3l1-1.1c0.1-0.1,0.2-0.1,0.3,0c0,0,0.1,0.1,0.1,0.2v3.1
		c0,0.1-0.1,0.2-0.2,0.2c0,0-0.1,0-0.1-0.1L219,242.6z"/>
	<path id="elfwcbgdb6y8" class="st0" d="M188,247.4c-3.1-3.1-3.1-8,0-11.1s8-3.1,11.1,0c3.1,3.1,3.1,8,0,11.1
		C196,250.5,191.1,250.5,188,247.4z"/>
	<path id="eloas9hrbhau" class="st0" d="M190.1,243.1l1.4-0.3c0.2,0,0.3-0.2,0.3-0.4v-0.3c0,0-0.1-0.5,0.4-0.5s2.4,0,2.4,0
		s0.6,0,0.5,0.4v0.4c0,0.1,0.1,0.3,0.2,0.3l1.5,0.5c0.2,0,0.3,0,0.4-0.2l0.2-0.5c0-0.1,0-0.2,0-0.3c0-0.3-0.1-0.5-0.3-0.7
		c-0.3-0.4-1.7-1.3-4.4-1.2s-3.1,1.2-3.3,1.5c-0.1,0.2-0.1,0.5,0,0.7c0,0.1,0.1,0.2,0.1,0.3C189.8,243.1,190,243.2,190.1,243.1z"/>
	<g id="elofrenqunzl7">
		<circle class="st0" cx="169.6" cy="241.8" r="7.9"/>
	</g>
	<path id="elptjuhsgufs" class="st0" d="M167.1,242.6c-0.4,0-0.8-0.3-0.8-0.8s0.3-0.8,0.8-0.8s0.8,0.3,0.8,0.8l0,0
		C167.9,242.3,167.6,242.6,167.1,242.6z"/>
	<path id="el05lklt6nyo5b" class="st0" d="M169.5,242.6c-0.4,0-0.8-0.4-0.8-0.8c0-0.4,0.3-0.8,0.8-0.8c0.4,0,0.8,0.3,0.8,0.8
		C170.3,242.2,170,242.6,169.5,242.6C169.5,242.6,169.5,242.6,169.5,242.6z"/>
	<path id="elti3osaof1b" class="st0" d="M172.1,242.6c-0.4,0-0.8-0.3-0.8-0.8s0.3-0.8,0.8-0.8s0.8,0.3,0.8,0.8l0,0
		C172.9,242.3,172.6,242.6,172.1,242.6z"/>
	<path id="elw9v5681wwc" class="st0" d="M121.9,123.2c0,2.8-2.3,5.1-5.1,5.1c-2.8,0-5.1-2.3-5.1-5.1c0-2.8,2.3-5.1,5.1-5.1
		c0,0,0,0,0,0C119.6,118.1,121.9,120.3,121.9,123.2z"/>
	<path id="eld70ff5gj5zt" class="st0" d="M154.4,122.3c0,0.1-6.4,0.3-14.2,0.3s-14.2-0.1-14.2-0.3s6.4-0.3,14.2-0.3
		S154.4,122.2,154.4,122.3z"/>
	<path id="eljdzbwbq92ni" class="st0" d="M295.2,200.7l-23.8,0.1l0.1-0.1c0,13.1,0,31.6,0.1,54.5v0.2h-0.2l-167.5,0.1h-0.1l-0.1-0.1
		l0,0l-0.1-0.1v-0.1c0-31.1,0-64.8,0-99.8c0-20.9,0-41.4,0-61.2V94h0.3l167.5,0.1h0.2v0.2c0,35.7-0.1,64.6-0.1,84.6v-0.1
		L295.2,200.7l-23.8-21.8l0,0l0,0c0-19.9,0-48.9-0.1-84.6l0.2,0.2L104,94.6l0.3-0.3v61.2c0,35,0,68.7,0,99.8l-0.1-0.2l0,0l-0.2-0.1
		l167.5,0.1l-0.2,0.2c0-22.9,0.1-41.4,0.1-54.5v-0.1h0.1L295.2,200.7z"/>
	<path id="eldk82e40evx" class="st0" d="M174.9,143.2l3.2,42c0.5,7.1,2.8,17.5,14.1,16.2l0,0c9.7-1.9,11.5-11.4,10.9-18.1
		c-0.2-3.2-0.4-5.8-0.4-6.1c0,0,10.6-1.8,10.6-12.5c0-5.1-0.9-15.8-1.8-25.3c-1-10.3-9.7-18.1-20.1-17.9h-1
		C179.2,122.3,173.7,132.2,174.9,143.2z"/>
	<path id="elh3g3bugwlov" class="st0" d="M202.6,177.1c-4.9,0.2-9.8-1.1-13.9-3.7c0,0,3.4,7.6,14,6.5L202.6,177.1z"/>
	<path id="eltnmxycvozz" class="st0" d="M209.9,144.7c-0.2,0.2-1.7-0.1-3.6,0.4s-3.1,1.6-3.4,1.5s0-0.4,0.6-0.9
		c0.8-0.7,1.7-1.1,2.6-1.4c0.9-0.3,1.9-0.3,2.9-0.1C209.7,144.4,210,144.6,209.9,144.7z"/>
	<path id="el12qi5nayg1d" class="st0" d="M193.5,146.8c-0.3,0.1-1.5-0.8-3.4-1.2s-3.5,0-3.7-0.2s0.2-0.3,0.9-0.5c1-0.2,2-0.3,3-0.1
		c1,0.2,1.9,0.6,2.7,1.2C193.5,146.4,193.6,146.7,193.5,146.8z"/>
	<path id="eldfwnndg1wjs" class="st0" d="M194,149.6c0,0.6-0.5,1.2-1.1,1.2c-0.6,0.1-1.2-0.4-1.2-1c0-0.6,0.5-1.2,1.1-1.2
		C193.4,148.5,193.9,149,194,149.6C194,149.6,194,149.6,194,149.6z"/>
	<path id="el7fqu986vujt" class="st0" d="M209.5,148.5c0,0.6-0.5,1.2-1.1,1.2c-0.6,0.1-1.2-0.4-1.2-1c0-0.6,0.5-1.2,1.1-1.2
		C208.9,147.4,209.4,147.9,209.5,148.5z"/>
	<path id="elliyhrmxq8pl" class="st0" d="M199.2,157.3c0.9-0.3,1.7-0.5,2.6-0.5c0.4-0.1,0.8-0.1,0.9-0.4c0-0.4-0.1-0.9-0.3-1.2
		c-0.4-1-0.8-2.1-1.3-3.2c-1.8-4.5-3.1-8.2-2.9-8.3s1.8,3.5,3.6,8l1.2,3.2c0.3,0.5,0.4,1.1,0.2,1.6c-0.1,0.3-0.4,0.5-0.7,0.6
		c-0.2,0.1-0.5,0.1-0.7,0.1C201,157.3,200.1,157.4,199.2,157.3z"/>
	<path id="elu0rtw2jkqip" class="st0" d="M192.4,138.8c-0.1,0.4-1.6,0.2-3.3,0.5s-3.1,0.7-3.3,0.4c-0.1-0.2,0.1-0.6,0.7-1
		c0.7-0.5,1.6-0.8,2.4-0.9c0.9-0.1,1.7,0,2.6,0.3C192.1,138.3,192.4,138.6,192.4,138.8z"/>
	<path id="eltpam5uadc" class="st0" d="M209.5,140.6c-0.2,0.3-1.6,0.1-3.3,0.2s-3.1,0.4-3.3,0.1c-0.1-0.1,0.2-0.5,0.7-0.8
		c0.8-0.4,1.6-0.6,2.4-0.6c0.9,0,1.7,0.1,2.5,0.4C209.2,140.1,209.5,140.4,209.5,140.6z"/>
	<path id="el0ob41tzrvrsm" class="st0" d="M175.9,151.1c-0.2-0.1-7.4-2.1-7,5.2s7.6,5.4,7.6,5.2S175.9,151.1,175.9,151.1z"/>
	<path id="elfl0fzq27nrr" class="st0" d="M174.1,158.9c0,0-0.1,0.1-0.3,0.2c-0.3,0.1-0.6,0.2-0.9,0.1c-1-0.6-1.6-1.6-1.6-2.8
		c0-0.6,0-1.2,0.3-1.8c0.1-0.5,0.5-0.8,0.9-1c0.3-0.1,0.6,0,0.8,0.3c0.1,0.2,0.1,0.4,0.1,0.4s0.1-0.1,0.1-0.4
		c-0.1-0.2-0.2-0.3-0.3-0.4c-0.2-0.1-0.5-0.2-0.7-0.1c-0.6,0.1-1.1,0.6-1.3,1.2c-0.3,0.6-0.4,1.3-0.3,2c0.1,1.5,0.9,2.8,2,3.1
		c0.4,0.1,0.8,0,1.1-0.3C174.1,159.1,174.1,158.9,174.1,158.9z"/>
	<path id="elyphxqzgxhxs" class="st0" d="M198,162.4c0.1-0.2-1.4-0.5-2.5-1.7c-0.5-0.5-0.9-1.2-1.2-1.8c-0.3-0.5-0.4-0.8-0.5-0.8
		s0,0.4,0.1,0.9c0.2,0.7,0.6,1.4,1.1,2c0.5,0.6,1.2,1,2,1.3C197.6,162.5,197.9,162.5,198,162.4z"/>
	<path id="el8zafoybr99" class="st0" d="M224.6,128.7c-0.2-0.4-0.5-0.7-0.9-0.9c-0.9-0.3-1.8-0.4-2.7-0.2c-2.8,0.2-5.7-0.4-8.2-1.7
		c-1.3-1.5-2.6-2.9-4.1-4.2c-3.5-3-6.3-5-9.1-5.9c-3.7-1.1-9.6-1.2-13.2,0.1s-6.6,4.6-6.8,8.4c-2.2-1.6-5.3-1.3-7.7,0h-0.1
		c-2.7,1.2-4,4.3-4.6,7.3s-0.7,6-1.9,8.7c-0.3,0.6-0.6,1.2-0.3,1.8c0.3,0.4,0.8,0.6,1.3,0.4c0.5-0.2,0.9-0.4,1.3-0.7
		c-0.3,0.8-0.5,1.6-0.7,2.3c1,0.1,2.1-0.1,3-0.5c0.7,2.5,1.6,5,2.7,7.4c1-0.2,2.1,0,3,0.5c1.1,0.8,1.6,2.4,3.2,1.6
		c0.8-0.4,1.4-2.2,1.6-3.1c1.3-5.8,1.4-11.8,0.2-17.6c1.1-1.3,2.4-2.5,3.8-3.3l-0.1,0.1c2.9-1.3,6.1-2.6,9-1.5
		c2.3,0.9,3.8,3,5.5,4.7c3.3,3.1,7.8,4.7,12.3,4.4c0.4,3,0.5,7.2,1,10.1l2.1-5l0,0c0.2-0.4,0.3-0.7,0.4-1.1v-0.1l0,0
		c0.2-0.6,0.4-1.2,0.7-1.8l0,0c0.9,0.6,2,0.4,2.6-0.5c0.5-0.7,0.4-1.6-0.1-2.2c-0.3-0.3-0.6-0.6-1-0.8c0.8,0.6,1.9,0.8,2.9,0.5
		c1-0.4,1.6-1.4,1.4-2.4c-0.1-0.7-0.6-1.2-1.3-1.5c1.3,0,2.6-0.4,3.7-1.2C224.3,130.5,224.8,129.6,224.6,128.7z"/>
	<path id="elkpge4gfh8h" class="st0" d="M183,125.2c-0.4,0.3-0.7,0.7-1,1.1c-0.7,1.1-1.2,2.3-1.3,3.7c-0.1,0.9-0.1,1.8,0,2.7
		c0.1,1,0.3,2,0.4,3.1c0.2,1.1,0.3,2.3,0.4,3.5c0,0.6,0,1.2-0.1,1.9c0,0.7-0.2,1.3-0.6,1.8c-0.3,0.4-0.9,0.7-1.4,0.6
		c-0.5-0.1-1-0.3-1.4-0.6c-0.6-0.7-1.1-1.6-1.3-2.6h0.2c-0.3,0.8-0.6,1.6-1.1,2.3c-0.5,0.7-1.2,1.1-2,1.3c-0.4,0.1-0.8,0-1.1-0.1
		c-0.3-0.1-0.6-0.4-0.8-0.7c-0.2-0.3-0.3-0.6-0.3-0.9c0-0.3,0.1-0.6,0.3-0.9l0.1,0.1c-0.6,0.8-1.3,1.4-2.1,1.9
		c-0.2,0.1-0.4,0.2-0.7,0.3c-0.1,0-0.2,0.1-0.3,0.1c0.1-0.1,0.1-0.1,0.2-0.1c0.1-0.1,0.4-0.2,0.6-0.4c0.8-0.5,1.5-1.2,2-1.9l0.1,0.1
		c-0.3,0.5-0.3,1.1,0.1,1.6c0.2,0.3,0.4,0.5,0.7,0.6c0.3,0.1,0.7,0.1,1,0.1c0.7-0.2,1.4-0.6,1.8-1.2c0.4-0.7,0.8-1.5,1-2.3l0.1-0.4
		l0.1,0.4c0.2,0.9,0.6,1.8,1.2,2.5c0.3,0.3,0.8,0.5,1.3,0.6c0.5,0.1,0.9-0.1,1.2-0.5c0.3-0.5,0.5-1.1,0.5-1.7
		c0.1-0.6,0.1-1.2,0.1-1.8c-0.1-1.1-0.2-2.3-0.4-3.4c-0.2-1.1-0.3-2.1-0.4-3.1c-0.1-0.9-0.1-1.8,0.1-2.8c0.1-1.3,0.6-2.6,1.4-3.7
		C182.2,125.8,182.6,125.5,183,125.2z"/>
	<path id="el6f3rigxbrnn" class="st0" d="M216.6,132.6L216.6,132.6l-0.3,0.3c-0.1,0.1-0.3,0.2-0.4,0.3c-0.2,0.1-0.4,0.3-0.6,0.4
		c-1.4,0.8-2.9,1.2-4.5,1.2c-2.3,0.1-4.6-0.6-6.6-1.8c-2.4-1.5-4.4-3.5-6-5.8c-0.9-1.2-1.6-2.5-2.4-3.6c-0.7-1.1-1.6-2.1-2.6-3
		c-0.9-0.8-2-1.3-3.2-1.6c-0.5-0.1-1.1-0.1-1.6,0c-0.5,0.1-1,0.2-1.4,0.4c-0.8,0.4-1.5,0.9-2.1,1.5c-0.4,0.5-0.8,1.1-1.1,1.7
		c-0.2,0.5-0.3,1.1-0.4,1.6c0,0,0,0,0-0.1v-0.3c0-0.4,0.1-0.8,0.3-1.2c0.6-1.5,1.7-2.6,3.2-3.3c0.5-0.2,1-0.4,1.5-0.4
		c0.6-0.1,1.1-0.1,1.7,0c1.2,0.2,2.4,0.8,3.3,1.6c1,0.9,2,1.9,2.7,3c0.8,1.2,1.6,2.4,2.4,3.6c1.6,2.3,3.6,4.3,6,5.8
		c1.9,1.2,4.2,1.8,6.5,1.8c1.5,0,3.1-0.4,4.4-1.1C215.7,133.2,216.2,132.9,216.6,132.6z"/>
	<path id="elyq3br2dnc1q" class="st0" d="M217.1,127.9c0,0-0.1,0.1-0.4,0.3c-0.3,0.3-0.7,0.5-1.1,0.7c-0.6,0.3-1.1,0.5-1.7,0.7
		c-0.7,0.2-1.5,0.4-2.3,0.5c-0.8,0.1-1.5,0.1-2.3,0c-0.6,0-1.3-0.2-1.9-0.3c-0.4-0.1-0.8-0.2-1.2-0.4l-0.4-0.2
		c0-0.1,0.6,0.2,1.7,0.4c0.6,0.1,1.2,0.2,1.8,0.3c0.8,0,1.5,0,2.3-0.1c0.7-0.1,1.5-0.3,2.2-0.5c0.6-0.2,1.2-0.4,1.7-0.7
		C216.6,128.2,217.1,127.8,217.1,127.9z"/>
	<path id="el0ggx1k6sgd6h" class="st0" d="M177.7,180.8l-12.8,5.4c-8,3.3-14.8,8.8-19.7,15.9c-1.1,1.7-4.8,14.8-5.1,15.9
		c-1.1,4.3-2.8,11.7-2.8,11.7h101.9c0,0-3-29.1-10.3-34.8c-4.7-3.7-26.3-13.6-26.3-13.6c-1.6,3.4-5,5.5-8.7,5.5
		C188,186.9,182.2,184.8,177.7,180.8z"/>
</g>
<g id="freepik--Floor--inject-47">
	<path id="elmd7cvfxzbkc" class="st2" d="M717.6,476.4c0,0.1-153.4,0.3-342.6,0.3s-342.6-0.1-342.6-0.3s153.4-0.3,342.6-0.3
		S717.6,476.2,717.6,476.4z"/>
</g>
</svg>
